<?xml version="1.0" encoding="UTF-8"?>
<!-- Created with Grafika (https://www.grafika.cc/) -->
<svg xmlns="http://www.w3.org/2000/svg" xmlns:svg="http://www.w3.org/2000/svg" xmlns:xlink="http://www.w3.org/1999/xlink" width="2048" height="2048" viewBox="0 0 2048 2048" preserveAspectRatio="xMidYMid meet">
	<defs>
		<filter id="filter_1" style="color-interpolation-filters:sRGB" primitiveUnits="userSpaceOnUse" x="-0.03" y="-0.122" width="1.061" height="1.354">
			<feGaussianBlur in="SourceAlpha" stdDeviation="9.3" />
			<feOffset dx="0" dy="13.7" />
			<feColorMatrix type="matrix" values="0 0 0 0 0 0 0 0 0 0 0 0 0 0 0 0 0 0 0.5 0" result="dropShadow_1" />
			<feComposite in="SourceGraphic" in2="dropShadow_1" operator="over" result="Layer1" />
		</filter>
		<clipPath id="mask_1">
			<rect x="-1024" y="-1024" width="2048" height="2048" />
		</clipPath>
		<mask id="mask_2" mask-type="alpha">
			<rect x="-194.3" y="-242.9" width="388.7" height="485.8" style="fill:white;" />
		</mask>
		<mask id="mask_3" mask-type="alpha">
			<rect x="-194.3" y="-242.9" width="388.7" height="485.8" style="fill:white;" />
		</mask>
		<mask id="mask_4" mask-type="alpha">
			<rect x="-540" y="-540" width="1080" height="1080" style="fill:white;" />
		</mask>
		<mask id="mask_5" mask-type="alpha">
			<rect x="-1833.7" y="-1833.7" width="3667.4" height="3667.4" style="fill:white;" />
		</mask>
		<mask id="mask_6" mask-type="alpha">
			<rect x="-1833.7" y="-1833.7" width="3667.4" height="3667.4" style="fill:white;" />
		</mask>
		<mask id="mask_7" mask-type="alpha">
			<rect x="-1833.7" y="-1833.7" width="3667.4" height="3667.4" style="fill:white;" />
		</mask>
		<mask id="mask_8" mask-type="alpha">
			<rect x="-1833.7" y="-1833.7" width="3667.4" height="3667.4" style="fill:white;" />
		</mask>
		<mask id="mask_9" mask-type="alpha">
			<rect x="-1833.7" y="-1833.7" width="3667.4" height="3667.4" style="fill:white;" />
		</mask>
		<mask id="mask_10" mask-type="alpha">
			<rect x="-1833.7" y="-1833.7" width="3667.4" height="3667.4" style="fill:white;" />
		</mask>
	</defs>
	<ellipse transform="matrix(3.0042121410369873, 0, 0, 3.0042121410369873, 1024, 1022.3909912109375)" cx="0" cy="0" rx="100" ry="100" style="fill:#00000000;stroke:#F3EBD6;stroke-linecap:round;stroke-linejoin:round;stroke-width:26.3;" />
	<ellipse transform="matrix(2.7025909423828125, 0, 0, 2.7025909423828125, 1024, 1022.3909912109375)" cx="0" cy="0" rx="100" ry="100" style="fill:#00000000;stroke:#272727;stroke-linecap:round;stroke-linejoin:round;stroke-width:45;" />
	<ellipse transform="matrix(2.0916635990142822, 0, 0, 2.0916635990142822, 1024, 1022.3909912109375)" cx="0" cy="0" rx="100" ry="100" style="fill:#F3EBD6;stroke:#E2B56B00;stroke-linecap:round;stroke-linejoin:round;stroke-width:3.4;" />
	<g transform="matrix(1.7305234670639038, -0.00535895861685276, 0.00535895861685276, 1.7305234670639038, 1025.9188232421875, 907.5943603515625)">
		<path d="M-123.1,140.4 Q-120,145.5 -121.3,151.1 Q-122.7,156.6 -127.8,159.7 Q-132.9,162.8 -138.4,161.5 Q-143.9,160.1 -147,155 Q-150.2,149.9 -148.8,144.4 Q-147.5,138.9 -142.4,135.8 Q-137.3,132.6 -131.7,134 Q-126.2,135.3 -123.1,140.4 ZM-127.6,143.1 Q-129.5,140 -132.9,139.3 Q-136.3,138.6 -139.5,140.5 Q-142.6,142.5 -143.6,145.8 Q-144.5,149.1 -142.6,152.3 Q-140.6,155.5 -137.3,156.2 Q-133.9,156.8 -130.7,154.9 Q-127.5,153 -126.6,149.6 Q-125.6,146.3 -127.6,143.1 ZM-169.5,97.1 L-151.9,95.2 Q-147.6,94.8 -145,91 Q-142.4,87.2 -143,82 Q-143.6,76.8 -146.9,73.7 Q-150.3,70.6 -154.5,71.1 L-172.2,73 L-171.6,78.6 L-155.4,76.8 Q-152.3,76.5 -150.6,78.2 Q-148.9,79.8 -148.6,82.6 Q-148.3,85.4 -149.6,87.4 Q-150.8,89.5 -154,89.8 L-170.2,91.6 L-169.5,97.1 ZM-163.8,14.3 Q-162.6,10.6 -161.1,8.9 Q-159.5,7.1 -157.2,5.9 L-154.8,10.6 Q-157.5,11.7 -158.5,14.9 Q-159.5,18.1 -158.3,19.5 Q-157.1,20.8 -155.7,20.3 Q-154.4,19.7 -152.8,16.7 Q-151.4,13.4 -148.6,11.3 Q-145.9,9.1 -141.8,10.4 Q-138.6,11.4 -137.2,15.1 Q-135.8,18.8 -137.1,22.7 Q-138.2,26.4 -140.1,28.6 Q-142,30.7 -144.3,31.9 L-146.7,27.3 Q-144,26.1 -142.3,22 Q-141.2,18.4 -142.4,17.1 Q-143.7,15.7 -145.5,16.1 Q-147.2,16.5 -148.7,19.9 Q-150.1,23 -152.6,25.2 Q-155,27.4 -158.9,26.1 Q-162.5,25 -163.7,21.3 Q-164.8,17.5 -163.8,14.3 ZM-82.9,-51.4 L-86.8,-81.4 L-81.9,-84.1 L-58.4,-65.1 L-63.6,-62.2 L-67.2,-65.1 L-78.3,-58.9 L-77.7,-54.3 L-82.9,-51.4 ZM-80.5,-76.3 L-79.1,-64.9 L-71.7,-69 L-80.5,-76.3 ZM-11.2,-75.9 Q-17.1,-75.4 -21.5,-79.1 Q-25.8,-82.8 -26.3,-88.8 Q-26.8,-94.7 -23.1,-99 Q-19.4,-103.3 -13.5,-103.8 Q-7.5,-104.3 -2.9,-100.9 L-6.3,-96.6 Q-9.4,-98.6 -13,-98.3 Q-16.8,-97.9 -18.9,-95.4 Q-21,-92.9 -20.7,-89.3 Q-20.4,-85.4 -17.9,-83.3 Q-15.4,-81.2 -11.6,-81.5 Q-7.9,-81.8 -5.3,-84.2 L-1.3,-80.4 Q-5.2,-76.4 -11.2,-75.9 ZM35.7,-72.1 L56.1,-94.4 L61.3,-92.4 L61.9,-62.2 L56.3,-64.3 L56.3,-68.9 L44.4,-73.4 L41.3,-70 L35.7,-72.1 ZM56.2,-86.3 L48.5,-77.9 L56.3,-74.9 L56.2,-86.3 ZM100.2,-41.7 L112.3,-53.5 L115.9,-49.7 Q121.1,-44.4 115.1,-38.5 Q109.1,-32.7 103.9,-38 L100.2,-41.7 ZM99.9,-34.1 Q109,-24.7 119,-34.5 Q129.1,-44.3 119.9,-53.7 L112.4,-61.4 L92.3,-41.8 L99.9,-34.1 ZM129.2,8 L155.5,-1.5 L162.6,17.8 L157.7,19.6 L152.5,5.5 L146.9,7.5 L150.8,18.1 L145.9,19.9 L142,9.3 L136,11.5 L141.1,25.6 L136.2,27.3 L129.2,8 ZM141.9,65 L169.8,67.5 L169.7,69.3 L154.8,80.2 L167.5,93.5 L167.4,95.4 L139.4,93 L139.9,87.4 L156.1,88.8 L147.6,79.6 L157.6,72 L141.4,70.6 L141.9,65 ZM152.3,141.7 L149,147.4 L137.8,148.3 L142.3,158.7 L139,164.2 L132.2,148.2 L120.1,141.1 L122.9,136.3 L135,143.4 L152.3,141.7 Z" fill="#FFFFFF" />
	</g>
	<path transform="matrix(-0.17072024941444397, -0.00000000010204127126600682, 0.000000018112856992047455, -0.3251913785934448, 1140.4071044921875, 1709.414306640625)" d="M-588.2,599.6 C-197.7,657.2 125.9,657.2 516.4,598.7 C400.2,736.8 400.2,874.1 516.4,1011.3 C125.9,1058.1 -197.7,1058.1 -588.2,1011.3 C-472,874.1 -472,736.8 -588.2,599.6 Z" fill-rule="evenodd" style="fill:#F3EBD6;stroke:#272727;stroke-linecap:round;stroke-linejoin:round;stroke-width:20;" />
	<path transform="matrix(0.17072024941444397, -0.00000000010204125738821901, -0.000000018112856992047455, -0.3251913785934448, 906.619384765625, 1709.414306640625)" d="M-588.2,599.6 C-197.7,657.2 125.9,657.2 516.4,598.7 C400.2,736.8 400.2,874.1 516.4,1011.3 C125.9,1058.1 -197.7,1058.1 -588.2,1011.3 C-472,874.1 -472,736.8 -588.2,599.6 Z" fill-rule="evenodd" style="fill:#F3EBD6;stroke:#272727;stroke-linecap:round;stroke-linejoin:round;stroke-width:20;" />
	<path transform="matrix(-0.26868370175361633, -0.0000000001605950372685072, 0.000000018112856992047455, -0.3251913785934448, 1013.8690185546875, 1663.2313232421875)" d="M-588.2,599.6 C-197.7,657.2 125.9,657.2 516.4,598.7 C400.2,736.8 400.2,874.1 516.4,1011.3 C125.9,1058.1 -197.7,1058.1 -588.2,1011.3 C-472,874.1 -472,736.8 -588.2,599.6 Z" fill-rule="evenodd" style="fill:#F3EBD6;stroke:#272727;stroke-linecap:round;stroke-linejoin:round;stroke-width:20;" />
	<g transform="matrix(0.3405197262763977, 0, 0, 0.3405197262763977, 1023.7021484375, 1382.940185546875)" style="filter:url(#filter_1)">
		<path d="M-199.4,-42.7 Q-200.7,-42.6 -200.4,-39.2 L-198.8,-23.3 Q-197.9,-14.2 -202,-8.9 Q-206,-3.6 -214.2,-2.8 Q-221.2,-2.1 -226,-5.2 Q-232.1,-9.1 -233.1,-19.3 L-234.9,-37.5 Q-235.1,-38.5 -235.2,-38.6 Q-235.3,-38.8 -235.9,-38.9 Q-236.6,-39 -237.2,-39 Q-237.9,-39.1 -238.5,-39.3 Q-239.8,-39.9 -240,-41.4 Q-240.1,-42.6 -239.2,-43.8 Q-238.2,-43.6 -236.3,-43.8 L-226,-44.8 Q-222.2,-45.2 -221.9,-42.3 Q-221.8,-41.1 -222.6,-40 Q-224,-40.2 -224.8,-40.2 Q-225.5,-40.1 -225.8,-39.9 Q-226.2,-39.7 -226.4,-39.4 Q-227.1,-38.4 -226.9,-36.3 L-225.5,-21.9 Q-224.7,-14 -221.3,-11 Q-218.7,-8.7 -214.6,-9.2 Q-204,-10.2 -205.3,-23.6 L-206.9,-39.6 Q-207,-41.1 -207.8,-41.4 Q-208.1,-41.5 -208.7,-41.6 Q-209.3,-41.6 -210,-41.7 Q-210.7,-41.8 -211.2,-42 Q-212.6,-42.6 -212.7,-44.1 Q-212.9,-45.3 -212,-46.5 Q-211,-46.3 -209.1,-46.5 L-200.3,-47.3 Q-198.8,-47.5 -197.6,-47 Q-196.4,-46.6 -196.2,-44.9 Q-196.1,-43.7 -196.9,-42.6 Q-198.4,-42.8 -199.4,-42.7 ZM-171.8,-7.2 Q-176.2,-6.9 -176.4,-9.7 Q-176.5,-11 -175.5,-12 Q-174.4,-11.8 -173.7,-11.8 Q-173,-11.9 -172.5,-12.1 Q-172,-12.3 -171.7,-12.6 Q-171.1,-13.2 -171.1,-14.3 L-173.2,-43.3 Q-173.3,-44.1 -173.6,-44.4 Q-173.8,-44.7 -174.5,-44.8 Q-175.1,-45 -175.7,-45 Q-176.2,-45.1 -176.7,-45.2 Q-178.2,-45.7 -178.3,-46.9 Q-178.4,-48.4 -177.6,-49.5 Q-176.6,-49.4 -175.6,-49.5 L-170.4,-49.8 Q-167.7,-50 -165.4,-47.5 L-142.6,-22.5 L-144.2,-44.9 Q-144.3,-45.8 -144.6,-46.2 Q-144.9,-46.7 -145.7,-46.8 Q-146.5,-47 -147.3,-47.1 Q-148,-47.1 -148.7,-47.3 Q-150.5,-47.8 -150.6,-49.3 Q-150.7,-50.5 -149.8,-51.5 Q-148.9,-51.3 -147.8,-51.4 L-137.1,-52.2 Q-132.8,-52.5 -132.6,-50.2 Q-132.5,-48.6 -133.4,-47.5 Q-134.4,-47.7 -135.2,-47.6 Q-136,-47.6 -136.5,-47.5 Q-137.1,-47.4 -137.4,-47.2 Q-138.1,-46.8 -138,-45.3 L-135.6,-11.3 Q-135.5,-10 -136.3,-9.6 Q-137,-9.3 -138.3,-9.2 Q-140.5,-9 -143.1,-12 L-166.6,-37.5 L-165,-14.4 Q-164.8,-12.7 -163.3,-12.5 Q-162.6,-12.4 -161.8,-12.3 Q-161,-12.3 -160.4,-12.1 Q-158.4,-11.8 -158.3,-10.3 Q-158.2,-9 -159,-7.9 Q-160,-8 -161,-8 L-171.8,-7.2 ZM-95.1,-11.5 Q-96.1,-11.8 -98,-11.7 L-109.1,-11.2 Q-110.6,-11.1 -111.8,-11.6 Q-112.9,-12.2 -113,-13.8 Q-113.1,-15 -112.2,-16.1 Q-110.8,-15.8 -110,-15.9 Q-109.2,-15.9 -108.9,-16.1 Q-108.5,-16.2 -108.3,-16.5 Q-107.7,-17.3 -107.7,-19.4 L-109,-46.6 Q-109.1,-48.1 -109.9,-48.4 Q-110.2,-48.6 -110.8,-48.7 Q-111.3,-48.8 -112,-48.9 Q-112.7,-49 -113.2,-49.2 Q-114.6,-49.8 -114.6,-51.3 Q-114.7,-52.6 -113.8,-53.8 Q-112.8,-53.5 -110.9,-53.6 L-100.1,-54.1 Q-98.5,-54.2 -97.3,-53.6 Q-96.2,-53.1 -96.1,-51.4 Q-96,-50.2 -96.9,-49.1 Q-98.3,-49.4 -99.4,-49.4 Q-101.2,-49.3 -101.1,-45.9 L-99.8,-18.7 Q-99.7,-17.1 -99,-16.8 Q-98.7,-16.7 -98.1,-16.6 Q-97.5,-16.5 -96.8,-16.4 Q-96.1,-16.3 -95.6,-16 Q-94.3,-15.4 -94.2,-13.9 Q-94.2,-12.7 -95.1,-11.5 ZM-36.6,-50.9 Q-37.6,-51.4 -38.3,-51.3 Q-39.1,-51.3 -39.4,-51 Q-39.7,-50.8 -40.1,-50.1 Q-40.4,-49.4 -40.8,-48.4 L-51,-18.3 Q-52.8,-12.8 -57.5,-12.6 Q-59.4,-12.6 -59.9,-13.8 L-73.9,-46.9 Q-74.1,-47.5 -74.3,-48.1 Q-74.6,-48.7 -74.8,-49.2 Q-75.2,-50.2 -76,-50.4 Q-76.6,-50.6 -77.1,-50.8 Q-77.6,-50.9 -78,-51.2 Q-79,-51.8 -79,-52.8 Q-79,-54 -78.2,-55.4 Q-77.1,-55.1 -75.7,-55.1 L-64.7,-55.4 Q-62.8,-55.5 -62,-55.2 Q-60.2,-54.5 -60.2,-52.7 Q-60.2,-51.5 -61.1,-50.3 Q-62.1,-50.7 -63.7,-50.7 Q-66,-50.6 -66,-48.8 Q-66,-48.6 -65.8,-48.1 L-65.5,-47.2 Q-65.3,-46.9 -65.2,-46.6 L-55.8,-22.7 L-47.3,-49 Q-47.2,-49.5 -47.2,-49.8 Q-47.2,-50 -47.3,-50.2 Q-47.5,-50.4 -47.7,-50.5 Q-47.9,-50.7 -48.8,-50.9 Q-49.7,-51 -50.4,-51.2 Q-51.1,-51.3 -51.6,-51.6 Q-52.9,-52.3 -53,-53.9 Q-53,-54.8 -52.4,-56.1 Q-51.2,-55.8 -49.3,-55.8 L-40.1,-56 Q-35.7,-56.2 -35.7,-53.3 Q-35.6,-52.1 -36.6,-50.9 ZM10.8,-26.9 Q12.1,-28 13.2,-28 Q14.9,-28 15.3,-27.2 Q16.4,-24.9 16.4,-20 Q16.4,-16.4 15.6,-14.8 Q15.1,-13.9 14.4,-13.9 L-15,-13.9 Q-19,-13.9 -19,-16.6 Q-19,-17.9 -18.1,-19.1 Q-16.8,-18.7 -16,-18.7 Q-15.3,-18.7 -14.8,-18.8 Q-14.3,-18.9 -13.9,-19.2 Q-12.9,-19.9 -12.9,-21.9 L-13,-48.9 Q-13,-50.6 -14.3,-51.1 Q-14.8,-51.3 -15.4,-51.4 Q-15.9,-51.5 -16.5,-51.7 Q-17,-51.9 -17.5,-52.1 Q-18.8,-52.8 -18.8,-54.1 Q-18.8,-55.5 -17.9,-56.6 Q-17,-56.3 -16.7,-56.3 L10.6,-56.3 Q13.3,-56.3 14.1,-55.7 Q15.6,-54.7 15.6,-51.6 Q15.6,-48.9 15.1,-47.1 Q14.6,-45.4 14.4,-44.9 Q13.9,-44.1 12.7,-44.1 Q11.3,-44.1 10.7,-44.5 Q10,-44.9 9.9,-45.4 Q9.6,-49 8.9,-49.9 Q8.2,-50.8 7.2,-51.1 Q6.2,-51.4 4.5,-51.4 L-1.5,-51.4 Q-4,-51.4 -4.4,-51.1 Q-4.8,-50.7 -5,-50.1 Q-5.1,-49.6 -5.1,-48.5 L-5.1,-37.9 L-4.3,-37.9 Q1.5,-37.9 6.7,-39 Q7.6,-38.6 8,-37.5 Q8.4,-36.4 8.4,-35.4 Q8.4,-33.8 7.6,-32.1 Q5.4,-31.9 3.1,-31.9 Q0.7,-31.9 -5.1,-32.6 L-5.1,-21.5 Q-5.1,-19.9 -4.4,-19.4 Q-3.6,-19 -1.6,-19 L2.5,-19.1 Q8,-19.3 9.6,-20.6 Q10.3,-21.2 10.6,-22.3 Q10.9,-23.4 10.9,-24.7 Q10.9,-25.9 10.8,-26.9 ZM52.6,-12.9 Q51.6,-13.3 49.7,-13.3 L38.9,-13.6 Q37.3,-13.7 36.2,-14.3 Q35.1,-14.9 35.1,-16.6 Q35.2,-17.7 36.1,-18.8 Q37.5,-18.4 38.3,-18.4 Q39.1,-18.4 39.5,-18.5 Q39.8,-18.6 40.1,-18.9 Q40.7,-19.8 40.8,-22 L41.5,-49.2 Q41.5,-50.5 40.8,-50.9 Q40.5,-51 39.9,-51.1 Q39.4,-51.3 38.8,-51.5 Q38.1,-51.6 37.7,-51.9 Q36.5,-52.6 36.5,-53.8 Q36.5,-55.3 37.5,-56.5 Q38.5,-56.1 40.4,-56 L43.9,-55.9 L53.2,-56 L54.4,-56 Q62.8,-55.7 67.1,-52.5 Q71.4,-49.3 71.2,-43.6 Q71.1,-39.4 68.3,-35.9 Q65.1,-32 61.4,-31.2 Q61.5,-31.1 63.3,-28.4 L66,-24.2 Q69.6,-18.7 71.8,-18.6 Q72.6,-18.6 73,-18.7 L73.7,-19 Q74,-19.1 74.6,-19.1 Q75.1,-19.1 75.6,-18.4 Q76.1,-17.7 76.1,-16.9 Q76,-16.2 75.5,-15.3 Q74.9,-14.4 73.9,-13.7 Q71.8,-12.3 69.4,-12.3 Q66.9,-12.4 65.4,-13.3 Q63.8,-14.1 62.6,-15.4 Q61.4,-16.8 60.4,-18.4 Q59.5,-20 58.6,-21.7 L57.1,-24.9 Q55.6,-28.3 54.8,-29.1 Q54,-30 53.5,-30 L50.8,-30.1 Q49.3,-30.1 49.4,-31.9 Q49.4,-33.6 50.8,-34.6 Q51.3,-34.9 53.1,-34.9 Q54.9,-34.9 57,-35.5 Q59,-36.1 60.4,-37.2 Q62.9,-39.2 63,-43.2 Q63.1,-46.4 61,-48.5 Q58.5,-51 54,-51.1 Q51.1,-51.2 50.3,-50.5 Q49.4,-49.8 49.3,-47.6 L48.6,-20.5 Q48.6,-18.9 49.3,-18.5 Q49.6,-18.4 50.2,-18.2 Q50.7,-18.1 51.4,-17.9 Q52,-17.7 52.5,-17.5 Q53.7,-16.8 53.6,-15.6 Q53.6,-14.1 52.6,-12.9 ZM116.8,-41.2 Q117,-46.7 113.3,-48.3 Q112,-48.8 110.1,-48.9 Q108.2,-49 106.9,-48.7 Q105.6,-48.3 104.7,-47.7 Q103,-46.4 102.9,-44.3 Q102.7,-40.8 107.9,-38 L111.1,-36.3 Q113.5,-35.1 115.7,-33.8 Q118,-32.5 119.7,-30.8 Q123.6,-27.1 123.4,-22 Q123.1,-16.4 118.1,-13.3 Q113.6,-10.4 107,-10.8 Q101.9,-11 98,-12.8 Q95,-14.2 93.7,-16.6 Q93.1,-17.8 93.2,-19.5 Q93.3,-22.7 95.1,-25.5 Q95.9,-26.4 97.2,-26.3 Q99.5,-26.2 99.8,-24.5 Q100,-20.2 102.1,-18.1 Q104.3,-16.1 108.4,-15.9 Q113.1,-15.7 114.8,-18.5 Q115.3,-19.5 115.4,-20.9 Q115.5,-22.2 114.8,-23.4 Q114.1,-24.5 112.8,-25.5 Q110.8,-27.2 107.4,-28.8 Q103.9,-30.5 102,-31.8 Q100,-33 98.4,-34.6 Q95.1,-38.3 95.3,-43.4 Q95.6,-48.7 100.3,-51.6 Q104.6,-54.4 111.2,-54 Q119.7,-53.6 122.2,-49.9 Q123.2,-48.4 123.1,-46.3 Q123,-44.1 122.5,-42.6 Q122.1,-41 121.6,-40.5 Q120.7,-39.5 118.7,-39.6 Q116.7,-39.7 116.8,-41.2 ZM168.7,-12.2 Q170.1,-11.8 170.6,-11.8 Q171.1,-11.8 171.5,-11.8 Q172,-11.9 172.3,-12 Q172.9,-12.4 173,-13.2 Q173,-14 172.5,-15.2 L170.7,-21.1 L154.9,-22.3 L151.6,-15.4 Q151.2,-14.6 151.2,-14.3 Q151.2,-14 151.2,-14 Q151.2,-13.9 151.4,-13.8 Q151.5,-13.7 151.9,-13.6 L152.9,-13.3 Q154.7,-12.8 155.3,-12.5 Q156.7,-11.7 156.6,-10.2 Q156.6,-9.2 155.6,-8.1 Q154.7,-8.4 154.4,-8.4 L143.6,-9.2 Q139.2,-9.6 139.4,-12.3 Q139.5,-13.5 140.5,-14.6 Q141.9,-14.1 142.4,-14.1 Q142.9,-14 143.3,-14.2 Q143.6,-14.3 143.9,-14.6 Q144.6,-15.3 145.7,-17.8 L161.2,-48.6 Q162.1,-50.2 165.1,-50.5 Q165.9,-50.6 166.8,-50.6 Q168.9,-50.4 169.4,-49 L171.6,-42.1 Q177.9,-23.5 178.9,-20.3 L180.8,-13.9 Q181.3,-11.9 181.6,-11.5 Q182,-11.2 182.4,-11 Q182.8,-10.8 183.4,-10.7 Q184,-10.5 184.6,-10.2 Q186,-9.4 185.9,-8 Q185.8,-7 184.8,-5.9 Q183.9,-6.2 183.6,-6.3 L171,-7.2 Q169.4,-7.3 168.4,-7.9 Q167.4,-8.4 167.5,-9.6 Q167.6,-11.1 168.7,-12.2 ZM168.9,-26.6 L164.2,-41.3 L157.5,-27.5 L168.9,-26.6 ZM237.2,-10.1 Q236.6,-3.9 234.3,-1.3 L205,-4.3 Q202.5,-4.5 201.6,-6 Q201.3,-6.6 201.3,-7.3 Q201.5,-8.6 202.5,-9.7 Q203.8,-9.2 205.1,-9 Q207.6,-8.8 207.9,-12 L210.7,-39.2 Q210.8,-40.5 209.8,-41.1 Q209.4,-41.3 208.8,-41.5 L207.5,-42 Q206,-42.5 205.6,-43.3 Q205.2,-44 205.3,-44.7 Q205.4,-46 206.5,-47.1 Q207.5,-46.7 209.4,-46.5 L220.9,-45.3 Q222.5,-45.1 223.5,-44.4 Q224.6,-43.7 224.4,-42.1 Q224.3,-40.9 223.3,-39.9 Q221.9,-40.4 221.1,-40.5 Q220.4,-40.6 220,-40.5 Q219.6,-40.4 219.4,-40.1 Q218.6,-39.4 218.4,-37.4 L215.7,-10.6 Q215.6,-9.2 216.2,-8.7 Q216.8,-8.2 219,-8 L220.9,-7.8 L223.2,-7.6 Q228.6,-7 230.4,-9.1 Q231.2,-10.2 231.7,-12 Q232.2,-13.8 232.7,-16.6 Q233.8,-17.1 234.7,-17 Q236.3,-16.9 237.2,-16.2 Q237.6,-13.5 237.2,-10.1 ZM-212.8,55.8 Q-212.1,62.1 -213.8,65.1 L-243.1,68.3 Q-245.5,68.6 -246.7,67.3 Q-247.2,66.8 -247.3,66.1 Q-247.4,64.8 -246.6,63.5 Q-245.3,63.7 -243.9,63.6 Q-241.5,63.3 -241.8,60.1 L-244.8,32.9 Q-245,31.6 -246.1,31.3 Q-246.5,31.2 -247.1,31.1 L-248.5,30.9 Q-250.1,30.7 -250.6,30 Q-251.1,29.4 -251.2,28.7 Q-251.3,27.4 -250.5,26.1 Q-249.5,26.3 -247.6,26.1 L-236.1,24.9 Q-234.5,24.7 -233.3,25.2 Q-232.1,25.6 -231.9,27.3 Q-231.8,28.5 -232.6,29.6 Q-234,29.4 -234.8,29.5 Q-235.6,29.6 -236,29.7 Q-236.3,29.9 -236.5,30.3 Q-237,31.1 -236.9,33.2 L-233.9,59.9 Q-233.7,61.3 -233,61.6 Q-232.3,62 -230.2,61.8 L-228.2,61.5 L-225.9,61.3 Q-220.6,60.7 -219.3,58.3 Q-218.6,57.1 -218.6,55.2 Q-218.5,53.4 -218.5,50.4 Q-217.6,49.7 -216.7,49.6 Q-215.1,49.5 -214.1,50 Q-213.2,52.5 -212.8,55.8 ZM-168.1,56.2 Q-166.6,56.3 -166.1,56.3 Q-165.7,56.2 -165.2,56.1 Q-164.8,56 -164.5,55.7 Q-164,55.3 -164,54.5 Q-164.1,53.7 -164.8,52.6 L-167.5,47.1 L-183.2,48.4 L-185.4,55.6 Q-185.7,56.6 -185.7,56.8 Q-185.7,57.1 -185.7,57.1 Q-185.6,57.2 -185.5,57.2 Q-185.3,57.3 -184.9,57.4 L-183.8,57.6 Q-182,57.7 -181.3,58 Q-179.8,58.6 -179.7,60 Q-179.6,61 -180.4,62.2 Q-181.3,62.1 -181.6,62.1 L-192.4,63 Q-196.8,63.4 -197,60.6 Q-197.1,59.5 -196.3,58.2 Q-194.9,58.4 -194.4,58.4 Q-193.8,58.4 -193.5,58.2 Q-193.2,58 -192.9,57.6 Q-192.4,56.8 -191.7,54.2 L-181.2,21.4 Q-180.6,19.6 -177.6,18.8 Q-176.8,18.6 -176,18.6 Q-173.8,18.4 -173.1,19.7 L-169.9,26.1 Q-160.8,43.6 -159.3,46.5 L-156.4,52.6 Q-155.6,54.4 -155.2,54.8 Q-154.8,55.1 -154.4,55.2 Q-153.9,55.3 -153.3,55.4 Q-152.7,55.4 -152.1,55.6 Q-150.6,56.2 -150.5,57.6 Q-150.4,58.6 -151.2,59.8 Q-152.1,59.6 -152.4,59.7 L-165.1,60.7 Q-166.6,60.8 -167.7,60.5 Q-168.8,60.1 -168.9,58.9 Q-169,57.4 -168.1,56.2 ZM-170.2,41.9 L-177.1,28.1 L-181.6,42.8 L-170.2,41.9 ZM-130.7,58.2 Q-135.1,58.5 -135.2,55.6 Q-135.3,54.3 -134.3,53.4 Q-133.2,53.6 -132.5,53.6 Q-131.8,53.6 -131.3,53.4 Q-130.8,53.2 -130.5,52.8 Q-129.9,52.2 -129.9,51.1 L-131.5,22.2 Q-131.5,21.4 -131.8,21.1 Q-132.1,20.7 -132.7,20.6 Q-133.4,20.4 -133.9,20.4 Q-134.5,20.3 -135,20.1 Q-136.4,19.6 -136.5,18.5 Q-136.6,17 -135.8,15.8 Q-134.8,16 -133.7,15.9 L-128.5,15.6 Q-125.8,15.5 -123.6,18.1 L-101.2,43.5 L-102.4,21 Q-102.5,20.1 -102.8,19.7 Q-103.1,19.2 -103.9,19.1 Q-104.7,18.9 -105.5,18.8 Q-106.2,18.7 -106.9,18.5 Q-108.7,18 -108.8,16.5 Q-108.9,15.4 -107.9,14.3 Q-107,14.5 -106,14.4 L-95.2,13.9 Q-90.9,13.6 -90.8,16 Q-90.7,17.5 -91.6,18.6 Q-92.6,18.4 -93.4,18.4 Q-94.2,18.5 -94.7,18.6 Q-95.3,18.6 -95.6,18.8 Q-96.3,19.3 -96.3,20.7 L-94.5,54.8 Q-94.4,56.1 -95.1,56.4 Q-95.8,56.8 -97.1,56.8 Q-99.4,57 -102,54 L-125,28 L-123.8,51.1 Q-123.6,52.8 -122.1,53.1 Q-121.4,53.2 -120.6,53.3 Q-119.8,53.4 -119.2,53.5 Q-117.2,53.9 -117.1,55.4 Q-117.1,56.6 -117.9,57.8 Q-118.9,57.6 -119.9,57.7 L-130.7,58.2 ZM-31.8,33.4 Q-31.2,35 -31.2,35.9 Q-31.2,36.7 -31.5,37.2 Q-31.8,37.7 -32.3,37.9 Q-32.7,38.1 -33.1,38.2 Q-33.5,38.2 -34,38.5 Q-34.8,39 -34.7,41.4 L-34.6,47.8 Q-35,48.8 -36.2,50 Q-37.4,51.3 -39.4,52.4 Q-44.2,55.3 -50,55.4 Q-55.7,55.6 -59.6,54.1 Q-63.5,52.7 -66.1,50 Q-71.5,44.7 -71.7,35.6 Q-71.8,30.1 -70.1,25.7 Q-68.5,21.3 -65.5,18.3 Q-59.4,12.1 -50.1,11.9 Q-42.6,11.7 -38.7,14.4 Q-35.5,16.7 -35.4,20.2 Q-35.4,22.5 -36.7,24 Q-38,25.4 -40.1,25.5 Q-41.9,25.5 -43.2,24.7 Q-43,23.4 -43,22.3 Q-43.1,21.1 -43.6,20.2 Q-44,19.2 -44.9,18.6 Q-46.6,17.6 -50.1,17.7 Q-53.6,17.7 -56.1,18.7 Q-58.5,19.7 -60.1,21.5 Q-63.6,25.5 -63.4,33.2 Q-63,49.9 -48.8,49.6 Q-45.5,49.5 -43.1,48.4 Q-42.4,48.1 -42.3,48 L-42.5,40.8 Q-42.5,39.4 -44.5,38.9 Q-45,38.8 -45.7,38.7 Q-46.3,38.6 -47,38.4 Q-47.7,38.3 -48.2,38 Q-49.5,37.4 -49.5,36 Q-49.6,34.6 -48.6,33.5 Q-47.6,33.8 -45.8,33.8 L-31.8,33.4 ZM25.8,16.6 Q24.5,16.6 24.5,20.1 L24.4,36 Q24.4,45.1 19.8,50 Q15.3,54.8 7,54.8 Q0,54.8 -4.4,51.2 Q-10.2,46.7 -10.1,36.5 L-10.1,18.2 Q-10.1,17.2 -10.2,17 Q-10.3,16.8 -10.9,16.7 Q-11.5,16.6 -12.2,16.4 Q-12.9,16.3 -13.4,16 Q-14.7,15.3 -14.7,13.8 Q-14.7,12.6 -13.7,11.4 Q-12.7,11.8 -10.8,11.8 L-0.5,11.8 Q3.4,11.8 3.4,14.7 Q3.4,15.9 2.4,17 Q1.1,16.6 0.3,16.6 Q-0.4,16.6 -0.8,16.7 Q-1.1,16.8 -1.4,17.2 Q-2.2,18.1 -2.2,20.2 L-2.2,34.6 Q-2.3,42.6 0.8,45.9 Q3.1,48.4 7.3,48.5 Q18,48.5 18,35 L18.1,19 Q18.1,17.4 17.3,17.1 Q17,16.9 16.4,16.8 Q15.8,16.7 15.2,16.5 Q14.5,16.3 14,16.1 Q12.7,15.4 12.7,13.9 Q12.7,12.6 13.7,11.5 Q14.7,11.9 16.6,11.9 L25.4,11.9 Q26.9,11.9 28.1,12.5 Q29.2,13.1 29.2,14.8 Q29.2,16 28.3,17 Q26.9,16.6 25.8,16.6 ZM72,50.7 Q73.4,51 73.9,51 Q74.4,51 74.8,50.9 Q75.3,50.9 75.6,50.7 Q76.2,50.3 76.2,49.5 Q76.2,48.7 75.7,47.5 L73.6,41.7 L57.8,41.2 L54.8,48.2 Q54.4,49.1 54.4,49.3 Q54.4,49.6 54.4,49.7 Q54.4,49.7 54.6,49.8 Q54.8,49.9 55.1,50 L56.2,50.3 Q58,50.7 58.6,51 Q60.1,51.7 60,53.2 Q60,54.2 59.1,55.3 Q58.1,55.1 57.8,55.1 L47,54.7 Q42.7,54.6 42.7,51.8 Q42.8,50.7 43.7,49.5 Q45.1,49.9 45.6,49.9 Q46.2,49.9 46.5,49.8 Q46.8,49.7 47.1,49.3 Q47.8,48.6 48.8,46.1 L62.9,14.6 Q63.7,13 66.7,12.5 Q67.5,12.4 68.4,12.4 Q70.6,12.5 71.1,13.9 L73.5,20.6 Q80.7,39 81.8,42.1 L84,48.5 Q84.6,50.4 84.9,50.8 Q85.3,51.1 85.7,51.3 Q86.1,51.4 86.8,51.6 Q87.4,51.7 87.9,52 Q89.4,52.7 89.3,54.1 Q89.3,55.1 88.4,56.2 Q87.5,56 87.2,55.9 L74.5,55.5 Q72.9,55.5 71.9,55 Q70.8,54.5 70.9,53.3 Q70.9,51.8 72,50.7 ZM71.5,36.3 L66.2,21.8 L60.1,35.9 L71.5,36.3 ZM146.6,38.3 Q147.1,39.9 147,40.7 Q147,41.6 146.6,42 Q146.2,42.5 145.8,42.6 Q145.3,42.8 144.9,42.8 Q144.5,42.9 144,43.1 Q143.2,43.5 143,45.9 L142.7,52.3 Q142.1,53.3 140.8,54.4 Q139.6,55.6 137.5,56.6 Q132.5,59 126.7,58.6 Q120.9,58.3 117.2,56.6 Q113.4,54.8 111,51.9 Q106.2,46.1 106.7,37.1 Q107,31.6 109,27.3 Q111.1,23.1 114.3,20.4 Q120.9,14.7 130.2,15.3 Q137.7,15.7 141.3,18.7 Q144.3,21.2 144.1,24.8 Q143.9,27.1 142.5,28.4 Q141.1,29.7 139,29.6 Q137.2,29.5 136,28.6 Q136.3,27.3 136.3,26.2 Q136.4,25.1 136,24 Q135.6,23 134.8,22.4 Q133.2,21.2 129.7,21 Q126.2,20.8 123.7,21.5 Q121.2,22.3 119.4,24 Q115.6,27.7 115.1,35.4 Q114.1,52.1 128.3,52.9 Q131.7,53.1 134.1,52.2 Q134.8,52 134.9,51.9 L135.3,44.6 Q135.4,43.3 133.5,42.7 Q133,42.5 132.3,42.3 Q131.7,42.2 131,41.9 Q130.4,41.7 129.9,41.4 Q128.6,40.7 128.7,39.3 Q128.8,37.9 129.8,36.9 Q130.8,37.3 132.7,37.4 L146.6,38.3 ZM194.2,50.2 Q195.6,49.2 196.7,49.3 Q198.4,49.4 198.7,50.3 Q199.7,52.6 199.2,57.6 Q198.9,61.1 197.9,62.7 Q197.4,63.5 196.7,63.4 L167.4,60.9 Q163.4,60.5 163.6,57.9 Q163.8,56.6 164.8,55.5 Q166.1,56 166.8,56.1 Q167.6,56.1 168,56.1 Q168.5,56 168.9,55.7 Q170,55 170.1,53.1 L172.5,26.2 Q172.6,24.5 171.3,23.9 Q170.9,23.7 170.3,23.5 Q169.8,23.3 169.2,23.1 Q168.7,22.9 168.2,22.7 Q166.9,21.8 167.1,20.5 Q167.2,19.1 168.2,18.1 Q169,18.4 169.4,18.5 L196.6,20.8 Q199.3,21.1 200,21.7 Q201.4,22.9 201.1,26 Q200.9,28.7 200.3,30.4 Q199.7,32.1 199.4,32.5 Q198.8,33.3 197.6,33.2 Q196.2,33.1 195.6,32.6 Q195,32.1 195,31.6 Q194.9,28 194.3,27.1 Q193.7,26.1 192.7,25.7 Q191.8,25.3 190,25.2 L184.1,24.7 Q181.6,24.5 181.2,24.8 Q180.7,25.1 180.5,25.7 Q180.4,26.2 180.3,27.3 L179.4,37.8 L180.2,37.9 Q185.9,38.4 191.2,37.8 Q192.1,38.3 192.4,39.4 Q192.6,40.5 192.6,41.5 Q192.4,43.1 191.5,44.7 Q189.3,44.7 187,44.5 Q184.6,44.3 178.9,43.1 L178,54.2 Q177.8,55.8 178.5,56.3 Q179.2,56.8 181.2,57 L185.2,57.2 Q190.8,57.5 192.5,56.4 Q193.3,55.8 193.7,54.7 Q194,53.6 194.1,52.4 Q194.2,51.1 194.2,50.2 ZM243.4,37.8 Q244,32.3 240.4,30.5 Q239.1,29.9 237.2,29.7 Q235.4,29.5 234,29.7 Q232.7,30 231.8,30.6 Q230,31.7 229.8,33.9 Q229.4,37.3 234.4,40.4 L237.5,42.3 Q239.8,43.7 241.9,45.2 Q244.1,46.6 245.7,48.3 Q249.4,52.2 248.8,57.4 Q248.2,62.9 243,65.7 Q238.4,68.3 231.8,67.6 Q226.7,67 222.9,65 Q220,63.4 218.9,61 Q218.3,59.7 218.5,58 Q218.9,54.8 220.8,52.2 Q221.7,51.3 223,51.5 Q225.3,51.7 225.5,53.4 Q225.4,57.8 227.4,59.9 Q229.4,62.1 233.6,62.5 Q238.2,63 240,60.3 Q240.7,59.4 240.8,58 Q241,56.6 240.4,55.5 Q239.7,54.3 238.5,53.2 Q236.6,51.4 233.3,49.6 Q230,47.7 228.1,46.3 Q226.1,44.9 224.7,43.2 Q221.6,39.4 222.2,34.3 Q222.7,29 227.6,26.4 Q232.1,23.9 238.7,24.6 Q247.1,25.6 249.4,29.5 Q250.3,31 250.1,33.1 Q249.8,35.2 249.3,36.8 Q248.7,38.3 248.2,38.8 Q247.3,39.7 245.3,39.5 Q243.3,39.3 243.4,37.8 Z" fill="#272727" />
	</g>
	<path transform="matrix(0.043546587228775024, -0.12856869399547577, 0.12856869399547577, 0.043546587228775024, 1024.3946533203125, 598.1137084960938)" d="M-355.3,220.3 C-240.3,416.5 11.9,482.6 208.2,367.6 C253.1,341.3 291.1,307.9 321.8,269.6 C298.5,284.6 273.1,297.2 245.8,306.7 C58.6,372.5 -146.6,274.1 -212.3,86.8 C-278.1,-100.4 -179.7,-305.5 7.6,-371.3 C34.8,-380.9 62.3,-387 89.8,-389.8 C-8.2,-411.7 -114.4,-398 -207.9,-343.2 C-404.2,-228.3 -470.2,24 -355.3,220.3 Z" style="fill:#F3EBD6;" />
	<ellipse transform="matrix(0.11659879982471466, 0, 0, 0.11659879982471466, 1024, 677.4712524414062)" cx="0" cy="0" rx="100" ry="63.2" style="fill:#F3EBD6;stroke:#E2B56B00;stroke-linecap:round;stroke-linejoin:round;stroke-width:0;" />
	<ellipse transform="matrix(0.07151469588279724, 0, 0, 0.07151469588279724, 1024, 665.9489135742188)" cx="0" cy="0" rx="100" ry="58" style="fill:#F3EBD6;stroke:#E2B56B00;stroke-linecap:round;stroke-linejoin:round;stroke-width:0;" />
	<ellipse transform="matrix(0.05509597063064575, 0, 0, 0.05509597063064575, 1024, 658.097900390625)" cx="0" cy="0" rx="100" ry="67.2" style="fill:#F3EBD6;stroke:#E2B56B00;stroke-linecap:round;stroke-linejoin:round;stroke-width:0;" />
	<path transform="matrix(0.666619062423706, 0, 0, 0.666619062423706, 1019.520751953125, 1040.7991943359375)" d="M220.3,641.7 C129.1,656.6 72,658.2 52.5,707.9" fill-rule="evenodd" style="fill:#B6A475;stroke:#2C2B2C;stroke-linecap:round;stroke-linejoin:round;stroke-width:7.1;" />
	<path transform="matrix(-0.666619062423706, 0, 0, 0.666619062423706, 1027.505615234375, 1040.7991943359375)" d="M220.3,641.7 C129.1,656.6 72,658.2 52.5,707.9" fill-rule="evenodd" style="fill:#B6A475;stroke:#2C2B2C;stroke-linecap:round;stroke-linejoin:round;stroke-width:7.1;" />
	<path transform="matrix(0.666619062423706, 0, 0, 0.666619062423706, 1023.51318359375, 1058.3558349609375)" d="M61,654.7 C58.1,657.5 55.8,659.5 55.8,659.2 C55.8,658.9 57,654.8 58.3,650.1 C59.7,645.3 61.8,636.8 62.9,631.1 C64,625.5 65.2,617.7 65.7,613.8 C66.1,609.9 66.7,605.4 66.9,603.7 L67.2,600.7 L69.5,600.7 C70.7,600.7 81.5,601.5 93.4,602.5 C105.2,603.5 120.5,604.9 127.4,605.7 C134.2,606.4 143.6,607.6 148.3,608.1 C152.9,608.7 164.7,610.3 174.5,611.7 C184.2,613.1 192.8,614.5 193.5,614.7 L194.8,615.2 L186,616.5 C181.2,617.2 167.6,619.4 155.7,621.3 C143.8,623.2 130.3,625.6 125.6,626.6 C120.9,627.5 114.1,629.2 110.4,630.1 C106.7,631.1 100.8,632.9 97.3,634.1 C93.8,635.3 87.7,637.8 83.7,639.6 C79.8,641.5 74.2,644.5 71.3,646.4 C68.4,648.2 63.8,652 61,654.7 Z" style="fill:#F3EBD6;" />
	<path transform="matrix(0.666619062423706, 0, 0, 0.666619062423706, 1023.51318359375, 1058.3558349609375)" d="M-108.5,630.5 C-108.6,630.5 -110.2,630.1 -112.1,629.6 C-114,629.1 -118.6,628 -122.3,627.1 C-126.1,626.3 -131.9,625.1 -135.3,624.5 C-138.7,623.9 -144.5,622.9 -148.2,622.3 C-151.8,621.7 -159.1,620.5 -164.3,619.7 C-169.6,618.9 -178.2,617.5 -183.5,616.7 L-193.1,615.2 L-192.6,615 C-192.3,614.9 -187.6,614.2 -182.1,613.3 C-176.7,612.5 -168.6,611.3 -164.3,610.7 C-160,610.1 -153.2,609.2 -149.1,608.6 C-145.1,608.1 -138.1,607.2 -133.5,606.7 C-129,606.2 -121.6,605.3 -117.2,604.9 C-112.8,604.4 -108.9,604.1 -108.7,604.1 L-108.3,604.1 L-108.3,617.3 L-108.3,630.6 L-108.5,630.5 Z" style="fill:#F3EBD6;" />
	<path transform="matrix(0.666619062423706, 0, 0, 0.666619062423706, 1023.51318359375, 1058.3558349609375)" d="M-56,658.9 C-56,659 -57.4,657.6 -59.1,655.9 C-60.8,654.2 -63.4,651.9 -64.9,650.6 C-66.4,649.4 -69.2,647.4 -71.1,646.2 C-73,644.9 -75.6,643.4 -76.8,642.7 C-78,642 -80.8,640.6 -83,639.6 C-85.2,638.5 -88.6,637 -90.7,636.2 C-92.8,635.4 -96.7,634 -99.6,633.1 C-102.4,632.2 -105.5,631.3 -106.6,631 C-107.7,630.8 -109.3,630.4 -110.2,630.2 C-111.1,630 -112.8,629.5 -114.1,629.2 C-115.3,628.9 -118.4,628.1 -121.1,627.5 C-123.8,627 -128.2,626 -130.9,625.5 C-133.6,625 -137.2,624.3 -138.9,624 C-140.6,623.7 -144.2,623.1 -146.9,622.7 L-151.8,621.9 L-151.8,615.3 L-151.8,608.7 L-151.5,608.7 C-151.4,608.7 -148.8,608.4 -145.8,608.1 C-142.8,607.7 -137.7,607 -134.5,606.7 C-131.3,606.3 -125.2,605.6 -121,605.2 C-116.7,604.7 -112.3,604.3 -111.2,604.2 C-110,604.1 -105.7,603.7 -101.5,603.4 C-97.3,603 -90.8,602.4 -87,602.1 C-83.2,601.8 -78,601.5 -75.4,601.3 C-72.8,601.1 -69.9,600.9 -69,600.9 L-67.3,600.7 L-67.1,602.6 C-67,603.6 -66.7,606.8 -66.4,609.7 C-66.1,612.6 -65.4,617.3 -65,620.2 C-64.6,623.1 -63.7,628 -63.1,631.1 C-62.4,634.2 -61.3,639.3 -60.6,642.3 C-59.8,645.3 -58.5,650.3 -57.6,653.3 C-56.7,656.4 -56,658.9 -56,658.9 Z" style="fill:#F3EBD6;" />
	<path transform="matrix(4.559353828430176, 0, 0, 4.559353828430176, 1024, 522.37353515625)" d="M-6.5,-1.8 L-2.5,1.1 L-4,6 L0,2.9 L4,6 L2.5,1.1 L6.5,-1.8 L1.6,-1.8 L0,-7 L-1.6,-1.8 L-6.5,-1.8 Z" style="fill:#F3EBD6;" />
	<path transform="matrix(3.4079172611236572, 0, 0, 3.4079172611236572, 1024, 432.96026611328125)" d="M-6.5,-1.8 L-2.5,1.1 L-4,6 L0,2.9 L4,6 L2.5,1.1 L6.5,-1.8 L1.6,-1.8 L0,-7 L-1.6,-1.8 L-6.5,-1.8 Z" style="fill:#F3EBD6;" />
	<path transform="matrix(2.761451005935669, 0, 0, 2.761451005935669, 1024, 337.41900634765625)" d="M-6.5,-1.8 L-2.5,1.1 L-4,6 L0,2.9 L4,6 L2.5,1.1 L6.5,-1.8 L1.6,-1.8 L0,-7 L-1.6,-1.8 L-6.5,-1.8 Z" style="fill:#F3EBD6;" />
	<path transform="matrix(0.052623409777879715, -0.01692606322467327, 0.01692606322467327, 0.052623409777879715, 1026.162841796875, 857.5396118164062)" d="M-355.3,220.3 C-240.3,416.5 11.9,482.6 208.2,367.6 C253.1,341.3 291.1,307.9 321.8,269.6 C298.5,284.6 273.1,297.2 245.8,306.7 C58.6,372.5 -146.6,274.1 -212.3,86.8 C-278.1,-100.4 -179.7,-305.5 7.6,-371.3 C34.8,-380.9 62.3,-387 89.8,-389.8 C-8.2,-411.7 -114.4,-398 -207.9,-343.2 C-404.2,-228.3 -470.2,24 -355.3,220.3 Z" style="fill:#272727;" />
	<path transform="matrix(0.052623409777879715, -0.01692606322467327, 0.01692606322467327, 0.052623409777879715, 863.162841796875, 1022.5972290039062)" d="M-355.3,220.3 C-240.3,416.5 11.9,482.6 208.2,367.6 C253.1,341.3 291.1,307.9 321.8,269.6 C298.5,284.6 273.1,297.2 245.8,306.7 C58.6,372.5 -146.6,274.1 -212.3,86.8 C-278.1,-100.4 -179.7,-305.5 7.6,-371.3 C34.8,-380.9 62.3,-387 89.8,-389.8 C-8.2,-411.7 -114.4,-398 -207.9,-343.2 C-404.2,-228.3 -470.2,24 -355.3,220.3 Z" style="fill:#272727;" />
	<path transform="matrix(0.052623409777879715, -0.01692606322467327, 0.01692606322467327, 0.052623409777879715, 1189.162841796875, 1022.5972290039062)" d="M-355.3,220.3 C-240.3,416.5 11.9,482.6 208.2,367.6 C253.1,341.3 291.1,307.9 321.8,269.6 C298.5,284.6 273.1,297.2 245.8,306.7 C58.6,372.5 -146.6,274.1 -212.3,86.8 C-278.1,-100.4 -179.7,-305.5 7.6,-371.3 C34.8,-380.9 62.3,-387 89.8,-389.8 C-8.2,-411.7 -114.4,-398 -207.9,-343.2 C-404.2,-228.3 -470.2,24 -355.3,220.3 Z" style="fill:#272727;" />
	<g id="Canvas.svg2" transform="matrix(0.29646071791648865, 0, 0, 0.29646071791648865, 1024, 1055.7076416015625)" clip-path="url(#mask_1)">
		<path transform="matrix(5.8505682945251465, 0, 0, 5.6119489669799805, 0, -41.35595703125)" d="M-71.8,-86.2 L71.8,-86.2 L71.8,-11.3 C71.8,36.3 43.3,86.5 0,100.9 L0,100.9 C-43.3,86.5 -71.8,36.3 -71.8,-11.3 L-71.8,-86.2 L-71.8,-86.2 Z" style="fill:#2B2B2B;stroke:#2B2B2B;stroke-linecap:round;stroke-linejoin:round;stroke-width:1.3;" />
		<g id="مجموعة 162" transform="matrix(0.18572594225406647, 0.00000000006440100536186932, -0.00000000006440100536186932, 0.18572594225406647, -300.37713623046875, -222.75)">
			<g mask="url(#mask_2)">
				<g id="مجموعة 92">
					<rect transform="matrix(7.730947971343994, 0, 0, 7.730947971343994, 4.954647541046143, 22.553403854370117)" x="-25.6" y="-34" width="51.2" height="68.1" style="fill:#F3F3F3;" />
					<path transform="matrix(2.5981194972991943, 0, 0, 1.957092523574829, 97.16963195800781, -145.06948852539062)" d="M-18.7,-50 L18.7,-50 L18.7,49.3 C3.7,0.9 -3.7,0.9 -18.7,49.3 L-18.7,-50 L-18.7,-50 L-18.7,-50 Z" style="fill:#2B2B2B;" />
				</g>
			</g>
		</g>
		<g id="مجموعة 202" transform="matrix(0.18572594225406647, 0.00000000006440100536186932, -0.00000000006440100536186932, 0.18572594225406647, 293.888671875, -222.75)">
			<g mask="url(#mask_3)">
				<g id="مجموعة2">
					<rect transform="matrix(7.730947971343994, 0, 0, 7.730947971343994, 4.954647541046143, 22.553403854370117)" x="-25.6" y="-34" width="51.2" height="68.1" style="fill:#F3F3F3;" />
					<path transform="matrix(2.5981194972991943, 0, 0, 1.957092523574829, 97.16963195800781, -145.06948852539062)" d="M-18.7,-50 L18.7,-50 L18.7,49.3 C3.7,0.9 -3.7,0.9 -18.7,49.3 L-18.7,-50 L-18.7,-50 L-18.7,-50 Z" style="fill:#2B2B2B;" />
				</g>
			</g>
		</g>
		<g id="مجموعة 52" transform="matrix(0.24879254400730133, -0.1256316900253296, 0.1256316900253296, 0.24879254400730133, 0, -322.8109130859375)">
			<g mask="url(#mask_4)">
				<g id="مجموعة 62">
					<g id="مجموعة22">
						<path transform="matrix(0.9434678554534912, -0.3314635753631592, 0.3314635753631592, 0.9434678554534912, -37.02935791015625, 0.00006103515625)" d="M-404.3,78.5 C-360.9,301.8 -144.8,447.7 78.5,404.3 C301.8,360.9 447.7,144.8 404.3,-78.5 C360.9,-301.8 144.8,-447.7 -78.5,-404.3 C-301.8,-360.9 -447.7,-144.8 -404.3,78.5 L-404.3,78.5 L-404.3,78.5 Z" fill-rule="evenodd" style="fill:#FEFEFE;" />
						<ellipse transform="matrix(3.3903207778930664, -1.1911042928695679, 1.1911042928695679, 3.3903207778930664, 89.52044677734375, -44.459991455078125)" cx="0" cy="0" rx="100" ry="100" style="fill:#2B2B2B;" />
					</g>
				</g>
			</g>
		</g>
		<g id="مجموعة 152" transform="matrix(0.055177539587020874, 0, 0, 0.055177539587020874, -216.02362060546875, -15.8505859375)">
			<g mask="url(#mask_5)">
				<g id="مجموعة 142">
					<path transform="matrix(3.240457773208618, 0, 0, 3.240457773208618, -24.89263916015625, -54.231685638427734)" d="M-463,-294.5 C-460.7,-283.3 -451.8,-249.6 -449.6,-239.2 C-447.4,-228.8 -448.1,-237.9 -449.7,-232.2 C-451.2,-226.5 -456.7,-213.4 -458.9,-204.9 C-461.1,-196.4 -462.3,-188.3 -462.9,-181.1 C-463.6,-173.8 -463.6,-167.6 -462.9,-161.5 C-462.2,-155.4 -460.6,-148.8 -458.8,-144.7 C-456.9,-140.6 -455.7,-137.5 -452,-136.7 C-448.4,-136 -440.3,-139.7 -436.6,-140.1 C-433,-140.5 -432.9,-142.6 -430.3,-139.1 C-427.8,-135.5 -424.4,-124 -421.5,-118.8 C-418.5,-113.5 -416.4,-111 -412.6,-107.6 C-408.9,-104.2 -404.1,-101.1 -398.9,-98.4 C-393.6,-95.7 -388.5,-98.5 -381.3,-91.5 C-374,-84.5 -362.9,-68 -355.3,-56.5 C-347.7,-44.9 -339.1,-30.6 -335.7,-22.2 C-332.3,-13.8 -336.1,-11 -335,-6.1 C-333.8,-1.2 -333.1,0.9 -328.9,7.1 C-324.6,13.3 -318,21.9 -309.2,31 C-300.5,40.1 -282.5,55.3 -276.4,61.8 C-270.4,68.3 -273.8,62.4 -272.7,70.2 C-271.5,78 -269.3,89.2 -269.6,108.7 C-269.9,128.2 -272.3,162.3 -274.8,187.1 C-277.3,212 -280.2,240.3 -284.7,257.8 C-289.2,275.3 -299,285.5 -301.8,292.1 C-304.7,298.8 -302.4,296.2 -301.9,297.7 C-301.4,299.3 -300.4,300.4 -298.8,301.4 C-297.1,302.4 -297.1,303.3 -291.8,303.7 C-286.4,304 -273.9,304.1 -266.5,303.4 C-259.2,302.7 -252.8,301.2 -247.6,299.4 C-242.5,297.7 -238.4,295.8 -236,292.8 C-233.5,289.8 -232.9,288.6 -233.1,281.6 C-233.2,274.6 -237.3,265.2 -236.7,250.8 C-236.2,236.5 -231.4,205.3 -229.7,195.5 C-228,185.7 -227.6,192.1 -226.6,191.8 C-225.7,191.5 -224.9,192 -223.8,193.8 C-222.8,195.5 -223.2,198.7 -220.4,202.5 C-217.6,206.4 -216.3,208.3 -207,216.9 C-197.8,225.4 -179.2,242.5 -165.1,253.9 C-150.9,265.3 -130.3,279.9 -122.3,285.2 C-114.4,290.6 -119.1,286.4 -117.4,286 C-115.8,285.6 -114.1,285.3 -112.5,283.1 C-111,280.8 -109,277.3 -108,272.5 C-107.1,267.7 -106.7,258.6 -106.8,254.3 C-106.9,250 -106.5,250.2 -108.4,246.6 C-110.4,243 -113.1,237.2 -118.5,232.6 C-123.8,228 -135.2,223.1 -140.6,219.1 C-145.9,215.2 -147.1,214.1 -150.7,208.8 C-154.4,203.5 -160.1,192.5 -162.4,187.1 C-164.8,181.8 -164.8,179.8 -164.8,176.6 C-164.8,173.5 -165,172.5 -162.6,168.2 C-160.3,163.9 -155.4,156.6 -150.8,150.7 C-146.2,144.8 -143.5,141.2 -134.9,132.9 C-126.4,124.7 -108.4,108.1 -99.7,101 C-90.9,93.9 -87.4,95.7 -82.4,90.5 C-77.4,85.4 -76.8,76.6 -69.8,70.2 C-62.8,63.8 -49.1,56.7 -40.5,52 C-31.8,47.3 -23.5,44 -18,42 C-12.6,40 -9.8,39.9 -7.5,40 C-5.3,40.2 -4.7,38.2 -4.5,42.9 C-4.3,47.6 -6.5,60.6 -6.5,68.1 C-6.5,75.6 -8,69.2 -4.4,87.7 C-0.8,106.3 11.8,161 15,179.4 C18.2,197.8 15.9,192.7 14.9,198.3 C13.9,203.9 11.4,208.2 8.7,213 C6,217.9 5,220.8 -1.3,227.4 C-7.5,234.1 -18.2,245.1 -28.5,253 C-38.9,260.9 -53.2,270.1 -63.5,274.7 C-73.9,279.3 -85.9,278.9 -90.8,280.9 C-95.8,282.8 -92.9,282.8 -93.3,286.5 C-93.6,290.2 -105.1,300.1 -92.9,303 C-74.4,309.5 -30.8,306 -29.7,298.9 C-15.6,298.6 -14.9,298.7 -8.3,301.5 C5.6,291.3 50.3,254 63.1,242.3 C76,230.5 67.8,239.9 69.1,231.2 C70.5,222.5 68.9,207.9 71.3,189.9 C73.7,171.9 79.3,139.6 83.3,123.4 C87.3,107.2 92.4,99 95.3,92.7 C98.3,86.4 99,87.2 100.9,85.5 C102.9,83.9 105.3,82.8 107.2,82.8 C109.2,82.8 107.6,80.6 112.8,85.6 C117.9,90.6 128.3,104.2 138.2,112.9 C148.1,121.6 157,128.1 172.3,137.8 C187.7,147.6 209.4,160.1 230.4,171.4 C251.4,182.8 284.1,196.3 298.3,205.9 C312.6,215.5 311.6,221.7 315.8,229.2 C320.1,236.7 322.1,243.3 323.8,250.8 C325.4,258.4 325.8,268.1 325.8,274.6 C325.8,281.1 325.3,283.3 323.8,290 C322.2,296.8 317.6,309.6 316.7,315.2 C315.8,320.8 317,321.7 318.4,323.6 C319.8,325.5 321.9,326.2 324.9,326.7 C328,327.3 331.7,327.6 336.8,326.9 C342,326.3 351.5,324.6 355.7,322.9 C359.9,321.2 359.4,321.3 362.2,316.6 C365,311.9 370.7,299.9 372.4,294.9 C374,289.9 373.3,291.3 372.1,286.5 C371,281.7 367.1,274 365.3,266.2 C363.4,258.4 361.7,254.9 361.1,239.6 C360.6,224.3 362.9,186.9 362,174.5 C361.1,162.1 358.9,167.3 355.7,165.3 C352.6,163.3 346.7,163.8 343.3,162.6 C339.8,161.5 340.8,162.4 334.9,158.4 C328.9,154.4 317.4,146.6 307.6,138.8 C297.8,131 283.2,118.4 276,111.5 C268.9,104.6 267.9,103 264.7,97.4 C261.6,91.8 258.9,85.9 256.9,77.9 C254.8,69.9 252.9,58.8 252.5,49.2 C252.2,39.6 253.8,27.9 254.8,20.5 C255.7,13.2 257.2,8.7 258.4,5.1 C259.6,1.5 257.5,-7.7 261.9,-1.2 C266.4,5.3 277.2,30.7 285,44.3 C292.9,58 302.8,72 308.9,80.7 C315.1,89.4 318.5,92.8 322.1,96.7 C325.7,100.7 326.3,102 330.5,104.4 C334.7,106.8 340.3,106.9 347.3,111 C354.4,115.1 361.1,119.5 373,129 C384.9,138.6 407.3,157.9 418.7,168.2 C430.2,178.5 436,184.6 441.6,190.6 C447.3,196.7 449.8,202.3 452.3,204.6 C454.9,206.9 455,209.6 456.7,204.6 C458.5,199.6 462.3,185.4 463,174.5 C463.6,163.7 462.6,151.4 460.6,139.5 C458.5,127.6 456.1,116.8 450.8,103.1 C445.5,89.5 438.1,73.1 428.8,57.6 C419.5,42.1 406,23.5 395.1,10 C384.2,-3.5 375.3,-12.2 363.4,-23.6 C351.4,-34.9 340.5,-38.8 323.5,-58.1 C306.6,-77.3 275.7,-121.7 261.6,-139.1 C247.5,-156.5 248.5,-156.4 238.8,-162.6 C229.2,-168.8 216.2,-170 203.8,-176.1 C191.5,-182.2 178.9,-193.3 164.6,-199.1 C150.4,-204.9 134.2,-207.8 118.4,-210.8 C102.7,-213.8 86.7,-215.4 70.1,-217 C53.6,-218.7 51.5,-219.7 19,-220.8 C-13.4,-221.9 -95.5,-222.2 -124.4,-223.6 C-153.4,-225 -145.9,-226.7 -154.6,-229.3 C-163.2,-231.8 -169.3,-234.7 -176.2,-239.2 C-183.1,-243.6 -189.8,-251.5 -196.2,-256 C-202.6,-260.4 -208.2,-263.3 -214.8,-265.9 C-221.3,-268.6 -226.5,-270 -235.8,-271.9 C-245,-273.7 -262.2,-268.7 -270.4,-277 C-278.7,-285.3 -281.9,-313.5 -285.2,-321.8 C-288.5,-330.1 -286.2,-329.9 -290.4,-326.9 C-294.5,-324 -304.9,-308.8 -309.9,-304 C-315,-299.3 -313.2,-298.4 -320.4,-298.2 C-327.7,-298 -343.8,-302.2 -353.4,-302.8 C-362.9,-303.4 -366.5,-303.8 -377.9,-301.8 C-389.2,-299.8 -413.2,-292.2 -421.3,-290.6 C-429.3,-289 -423.4,-290.4 -426.1,-292.3 C-428.9,-294.3 -433.5,-297.4 -438,-302.2 C-442.5,-307 -449.4,-318.2 -453,-321.1 C-456.5,-324 -457.8,-322.1 -459.4,-319.7 C-461.1,-317.2 -462.3,-310.6 -462.9,-306.4 C-463.5,-302.2 -465.2,-305.7 -463,-294.5 L-463,-294.5 L-463,-294.5 ZM-202.2,95.4 C-202.3,90.9 -202.4,78.1 -202.1,74.4 C-201.9,70.8 -202.3,73.6 -200.8,73.4 C-199.2,73.2 -195.5,73.2 -193.1,73.4 C-190.6,73.7 -188.5,74.6 -186.1,75 C-183.6,75.4 -180,75.3 -178.6,75.8 C-177.1,76.3 -177.5,76.6 -177.4,77.9 C-177.3,79.2 -177,80.6 -178.1,83.5 C-179.2,86.4 -182.7,93.2 -183.9,95.4 C-185.1,97.6 -183.2,93.5 -185.2,96.8 C-187.2,100.1 -193.3,110.9 -196,115 C-198.7,119.2 -200.4,120.8 -201.4,121.8 C-202.5,122.7 -202.1,124 -202.2,120.6 C-202.2,117.3 -201.7,105.9 -201.7,101.7 C-201.7,97.5 -202.1,100 -202.2,95.4 L-202.2,95.4 L-202.2,95.4 Z" style="fill:#FEFEFE;" />
				</g>
			</g>
		</g>
		<g id="مجموعة 182" transform="matrix(0.055177539587020874, 0, 0, 0.055177539587020874, 212.449951171875, -15.8505859375)">
			<g mask="url(#mask_6)">
				<g id="مجموعة 102">
					<path transform="matrix(3.240457773208618, 0, 0, 3.240457773208618, -24.89263916015625, -54.231685638427734)" d="M-463,-294.5 C-460.7,-283.3 -451.8,-249.6 -449.6,-239.2 C-447.4,-228.8 -448.1,-237.9 -449.7,-232.2 C-451.2,-226.5 -456.7,-213.4 -458.9,-204.9 C-461.1,-196.4 -462.3,-188.3 -462.9,-181.1 C-463.6,-173.8 -463.6,-167.6 -462.9,-161.5 C-462.2,-155.4 -460.6,-148.8 -458.8,-144.7 C-456.9,-140.6 -455.7,-137.5 -452,-136.7 C-448.4,-136 -440.3,-139.7 -436.6,-140.1 C-433,-140.5 -432.9,-142.6 -430.3,-139.1 C-427.8,-135.5 -424.4,-124 -421.5,-118.8 C-418.5,-113.5 -416.4,-111 -412.6,-107.6 C-408.9,-104.2 -404.1,-101.1 -398.9,-98.4 C-393.6,-95.7 -388.5,-98.5 -381.3,-91.5 C-374,-84.5 -362.9,-68 -355.3,-56.5 C-347.7,-44.9 -339.1,-30.6 -335.7,-22.2 C-332.3,-13.8 -336.1,-11 -335,-6.1 C-333.8,-1.2 -333.1,0.9 -328.9,7.1 C-324.6,13.3 -318,21.9 -309.2,31 C-300.5,40.1 -282.5,55.3 -276.4,61.8 C-270.4,68.3 -273.8,62.4 -272.7,70.2 C-271.5,78 -269.3,89.2 -269.6,108.7 C-269.9,128.2 -272.3,162.3 -274.8,187.1 C-277.3,212 -280.2,240.3 -284.7,257.8 C-289.2,275.3 -299,285.5 -301.8,292.1 C-304.7,298.8 -302.4,296.2 -301.9,297.7 C-301.4,299.3 -300.4,300.4 -298.8,301.4 C-297.1,302.4 -297.1,303.3 -291.8,303.7 C-286.4,304 -273.9,304.1 -266.5,303.4 C-259.2,302.7 -252.8,301.2 -247.6,299.4 C-242.5,297.7 -238.4,295.8 -236,292.8 C-233.5,289.8 -232.9,288.6 -233.1,281.6 C-233.2,274.6 -237.3,265.2 -236.7,250.8 C-236.2,236.5 -231.4,205.3 -229.7,195.5 C-228,185.7 -227.6,192.1 -226.6,191.8 C-225.7,191.5 -224.9,192 -223.8,193.8 C-222.8,195.5 -223.2,198.7 -220.4,202.5 C-217.6,206.4 -216.3,208.3 -207,216.9 C-197.8,225.4 -179.2,242.5 -165.1,253.9 C-150.9,265.3 -130.3,279.9 -122.3,285.2 C-114.4,290.6 -119.1,286.4 -117.4,286 C-115.8,285.6 -114.1,285.3 -112.5,283.1 C-111,280.8 -109,277.3 -108,272.5 C-107.1,267.7 -106.7,258.6 -106.8,254.3 C-106.9,250 -106.5,250.2 -108.4,246.6 C-110.4,243 -113.1,237.2 -118.5,232.6 C-123.8,228 -135.2,223.1 -140.6,219.1 C-145.9,215.2 -147.1,214.1 -150.7,208.8 C-154.4,203.5 -160.1,192.5 -162.4,187.1 C-164.8,181.8 -164.8,179.8 -164.8,176.6 C-164.8,173.5 -165,172.5 -162.6,168.2 C-160.3,163.9 -155.4,156.6 -150.8,150.7 C-146.2,144.8 -143.5,141.2 -134.9,132.9 C-126.4,124.7 -108.4,108.1 -99.7,101 C-90.9,93.9 -87.4,95.7 -82.4,90.5 C-77.4,85.4 -76.8,76.6 -69.8,70.2 C-62.8,63.8 -49.1,56.7 -40.5,52 C-31.8,47.3 -23.5,44 -18,42 C-12.6,40 -9.8,39.9 -7.5,40 C-5.3,40.2 -4.7,38.2 -4.5,42.9 C-4.3,47.6 -6.5,60.6 -6.5,68.1 C-6.5,75.6 -8,69.2 -4.4,87.7 C-0.8,106.3 11.8,161 15,179.4 C18.2,197.8 15.9,192.7 14.9,198.3 C13.9,203.9 11.4,208.2 8.7,213 C6,217.9 5,220.8 -1.3,227.4 C-7.5,234.1 -18.2,245.1 -28.5,253 C-38.9,260.9 -53.2,270.1 -63.5,274.7 C-73.9,279.3 -85.9,278.9 -90.8,280.9 C-95.8,282.8 -92.9,282.8 -93.3,286.5 C-93.6,290.2 -105.1,300.1 -92.9,303 C-74.4,309.5 -30.8,306 -29.7,298.9 C-15.6,298.6 -14.9,298.7 -8.3,301.5 C5.6,291.3 50.3,254 63.1,242.3 C76,230.5 67.8,239.9 69.1,231.2 C70.5,222.5 68.9,207.9 71.3,189.9 C73.7,171.9 79.3,139.6 83.3,123.4 C87.3,107.2 92.4,99 95.3,92.7 C98.3,86.4 99,87.2 100.9,85.5 C102.9,83.9 105.3,82.8 107.2,82.8 C109.2,82.8 107.6,80.6 112.8,85.6 C117.9,90.6 128.3,104.2 138.2,112.9 C148.1,121.6 157,128.1 172.3,137.8 C187.7,147.6 209.4,160.1 230.4,171.4 C251.4,182.8 284.1,196.3 298.3,205.9 C312.6,215.5 311.6,221.7 315.8,229.2 C320.1,236.7 322.1,243.3 323.8,250.8 C325.4,258.4 325.8,268.1 325.8,274.6 C325.8,281.1 325.3,283.3 323.8,290 C322.2,296.8 317.6,309.6 316.7,315.2 C315.8,320.8 317,321.7 318.4,323.6 C319.8,325.5 321.9,326.2 324.9,326.7 C328,327.3 331.7,327.6 336.8,326.9 C342,326.3 351.5,324.6 355.7,322.9 C359.9,321.2 359.4,321.3 362.2,316.6 C365,311.9 370.7,299.9 372.4,294.9 C374,289.9 373.3,291.3 372.1,286.5 C371,281.7 367.1,274 365.3,266.2 C363.4,258.4 361.7,254.9 361.1,239.6 C360.6,224.3 362.9,186.9 362,174.5 C361.1,162.1 358.9,167.3 355.7,165.3 C352.6,163.3 346.7,163.8 343.3,162.6 C339.8,161.5 340.8,162.4 334.9,158.4 C328.9,154.4 317.4,146.6 307.6,138.8 C297.8,131 283.2,118.4 276,111.5 C268.9,104.6 267.9,103 264.7,97.4 C261.6,91.8 258.9,85.9 256.9,77.9 C254.8,69.9 252.9,58.8 252.5,49.2 C252.2,39.6 253.8,27.9 254.8,20.5 C255.7,13.2 257.2,8.7 258.4,5.1 C259.6,1.5 257.5,-7.7 261.9,-1.2 C266.4,5.3 277.2,30.7 285,44.3 C292.9,58 302.8,72 308.9,80.7 C315.1,89.4 318.5,92.8 322.1,96.7 C325.7,100.7 326.3,102 330.5,104.4 C334.7,106.8 340.3,106.9 347.3,111 C354.4,115.1 361.1,119.5 373,129 C384.9,138.6 407.3,157.9 418.7,168.2 C430.2,178.5 436,184.6 441.6,190.6 C447.3,196.7 449.8,202.3 452.3,204.6 C454.9,206.9 455,209.6 456.7,204.6 C458.5,199.6 462.3,185.4 463,174.5 C463.6,163.7 462.6,151.4 460.6,139.5 C458.5,127.6 456.1,116.8 450.8,103.1 C445.5,89.5 438.1,73.1 428.8,57.6 C419.5,42.1 406,23.5 395.1,10 C384.2,-3.5 375.3,-12.2 363.4,-23.6 C351.4,-34.9 340.5,-38.8 323.5,-58.1 C306.6,-77.3 275.7,-121.7 261.6,-139.1 C247.5,-156.5 248.5,-156.4 238.8,-162.6 C229.2,-168.8 216.2,-170 203.8,-176.1 C191.5,-182.2 178.9,-193.3 164.6,-199.1 C150.4,-204.9 134.2,-207.8 118.4,-210.8 C102.7,-213.8 86.7,-215.4 70.1,-217 C53.6,-218.7 51.5,-219.7 19,-220.8 C-13.4,-221.9 -95.5,-222.2 -124.4,-223.6 C-153.4,-225 -145.9,-226.7 -154.6,-229.3 C-163.2,-231.8 -169.3,-234.7 -176.2,-239.2 C-183.1,-243.6 -189.8,-251.5 -196.2,-256 C-202.6,-260.4 -208.2,-263.3 -214.8,-265.9 C-221.3,-268.6 -226.5,-270 -235.8,-271.9 C-245,-273.7 -262.2,-268.7 -270.4,-277 C-278.7,-285.3 -281.9,-313.5 -285.2,-321.8 C-288.5,-330.1 -286.2,-329.9 -290.4,-326.9 C-294.5,-324 -304.9,-308.8 -309.9,-304 C-315,-299.3 -313.2,-298.4 -320.4,-298.2 C-327.7,-298 -343.8,-302.2 -353.4,-302.8 C-362.9,-303.4 -366.5,-303.8 -377.9,-301.8 C-389.2,-299.8 -413.2,-292.2 -421.3,-290.6 C-429.3,-289 -423.4,-290.4 -426.1,-292.3 C-428.9,-294.3 -433.5,-297.4 -438,-302.2 C-442.5,-307 -449.4,-318.2 -453,-321.1 C-456.5,-324 -457.8,-322.1 -459.4,-319.7 C-461.1,-317.2 -462.3,-310.6 -462.9,-306.4 C-463.5,-302.2 -465.2,-305.7 -463,-294.5 L-463,-294.5 L-463,-294.5 ZM-202.2,95.4 C-202.3,90.9 -202.4,78.1 -202.1,74.4 C-201.9,70.8 -202.3,73.6 -200.8,73.4 C-199.2,73.2 -195.5,73.2 -193.1,73.4 C-190.6,73.7 -188.5,74.6 -186.1,75 C-183.6,75.4 -180,75.3 -178.6,75.8 C-177.1,76.3 -177.5,76.6 -177.4,77.9 C-177.3,79.2 -177,80.6 -178.1,83.5 C-179.2,86.4 -182.7,93.2 -183.9,95.4 C-185.1,97.6 -183.2,93.5 -185.2,96.8 C-187.2,100.1 -193.3,110.9 -196,115 C-198.7,119.2 -200.4,120.8 -201.4,121.8 C-202.5,122.7 -202.1,124 -202.2,120.6 C-202.2,117.3 -201.7,105.9 -201.7,101.7 C-201.7,97.5 -202.1,100 -202.2,95.4 L-202.2,95.4 L-202.2,95.4 Z" style="fill:#FEFEFE;" />
				</g>
			</g>
		</g>
		<g id="مجموعة 172" transform="matrix(0.055177539587020874, 0, 0, 0.055177539587020874, 212.449951171875, 126.973876953125)">
			<g mask="url(#mask_7)">
				<g id="مجموعة 212">
					<path transform="matrix(3.240457773208618, 0, 0, 3.240457773208618, -24.89263916015625, -54.231685638427734)" d="M-463,-294.5 C-460.7,-283.3 -451.8,-249.6 -449.6,-239.2 C-447.4,-228.8 -448.1,-237.9 -449.7,-232.2 C-451.2,-226.5 -456.7,-213.4 -458.9,-204.9 C-461.1,-196.4 -462.3,-188.3 -462.9,-181.1 C-463.6,-173.8 -463.6,-167.6 -462.9,-161.5 C-462.2,-155.4 -460.6,-148.8 -458.8,-144.7 C-456.9,-140.6 -455.7,-137.5 -452,-136.7 C-448.4,-136 -440.3,-139.7 -436.6,-140.1 C-433,-140.5 -432.9,-142.6 -430.3,-139.1 C-427.8,-135.5 -424.4,-124 -421.5,-118.8 C-418.5,-113.5 -416.4,-111 -412.6,-107.6 C-408.9,-104.2 -404.1,-101.1 -398.9,-98.4 C-393.6,-95.7 -388.5,-98.5 -381.3,-91.5 C-374,-84.5 -362.9,-68 -355.3,-56.5 C-347.7,-44.9 -339.1,-30.6 -335.7,-22.2 C-332.3,-13.8 -336.1,-11 -335,-6.1 C-333.8,-1.2 -333.1,0.9 -328.9,7.1 C-324.6,13.3 -318,21.9 -309.2,31 C-300.5,40.1 -282.5,55.3 -276.4,61.8 C-270.4,68.3 -273.8,62.4 -272.7,70.2 C-271.5,78 -269.3,89.2 -269.6,108.7 C-269.9,128.2 -272.3,162.3 -274.8,187.1 C-277.3,212 -280.2,240.3 -284.7,257.8 C-289.2,275.3 -299,285.5 -301.8,292.1 C-304.7,298.8 -302.4,296.2 -301.9,297.7 C-301.4,299.3 -300.4,300.4 -298.8,301.4 C-297.1,302.4 -297.1,303.3 -291.8,303.7 C-286.4,304 -273.9,304.1 -266.5,303.4 C-259.2,302.7 -252.8,301.2 -247.6,299.4 C-242.5,297.7 -238.4,295.8 -236,292.8 C-233.5,289.8 -232.9,288.6 -233.1,281.6 C-233.2,274.6 -237.3,265.2 -236.7,250.8 C-236.2,236.5 -231.4,205.3 -229.7,195.5 C-228,185.7 -227.6,192.1 -226.6,191.8 C-225.7,191.5 -224.9,192 -223.8,193.8 C-222.8,195.5 -223.2,198.7 -220.4,202.5 C-217.6,206.4 -216.3,208.3 -207,216.9 C-197.8,225.4 -179.2,242.5 -165.1,253.9 C-150.9,265.3 -130.3,279.9 -122.3,285.2 C-114.4,290.6 -119.1,286.4 -117.4,286 C-115.8,285.6 -114.1,285.3 -112.5,283.1 C-111,280.8 -109,277.3 -108,272.5 C-107.1,267.7 -106.7,258.6 -106.8,254.3 C-106.9,250 -106.5,250.2 -108.4,246.6 C-110.4,243 -113.1,237.2 -118.5,232.6 C-123.8,228 -135.2,223.1 -140.6,219.1 C-145.9,215.2 -147.1,214.1 -150.7,208.8 C-154.4,203.5 -160.1,192.5 -162.4,187.1 C-164.8,181.8 -164.8,179.8 -164.8,176.6 C-164.8,173.5 -165,172.5 -162.6,168.2 C-160.3,163.9 -155.4,156.6 -150.8,150.7 C-146.2,144.8 -143.5,141.2 -134.9,132.9 C-126.4,124.7 -108.4,108.1 -99.7,101 C-90.9,93.9 -87.4,95.7 -82.4,90.5 C-77.4,85.4 -76.8,76.6 -69.8,70.2 C-62.8,63.8 -49.1,56.7 -40.5,52 C-31.8,47.3 -23.5,44 -18,42 C-12.6,40 -9.8,39.9 -7.5,40 C-5.3,40.2 -4.7,38.2 -4.5,42.9 C-4.3,47.6 -6.5,60.6 -6.5,68.1 C-6.5,75.6 -8,69.2 -4.4,87.7 C-0.8,106.3 11.8,161 15,179.4 C18.2,197.8 15.9,192.7 14.9,198.3 C13.9,203.9 11.4,208.2 8.7,213 C6,217.9 5,220.8 -1.3,227.4 C-7.5,234.1 -18.2,245.1 -28.5,253 C-38.9,260.9 -53.2,270.1 -63.5,274.7 C-73.9,279.3 -85.9,278.9 -90.8,280.9 C-95.8,282.8 -92.9,282.8 -93.3,286.5 C-93.6,290.2 -105.1,300.1 -92.9,303 C-74.4,309.5 -30.8,306 -29.7,298.9 C-15.6,298.6 -14.9,298.7 -8.3,301.5 C5.6,291.3 50.3,254 63.1,242.3 C76,230.5 67.8,239.9 69.1,231.2 C70.5,222.5 68.9,207.9 71.3,189.9 C73.7,171.9 79.3,139.6 83.3,123.4 C87.3,107.2 92.4,99 95.3,92.7 C98.3,86.4 99,87.2 100.9,85.5 C102.9,83.9 105.3,82.8 107.2,82.8 C109.2,82.8 107.6,80.6 112.8,85.6 C117.9,90.6 128.3,104.2 138.2,112.9 C148.1,121.6 157,128.1 172.3,137.8 C187.7,147.6 209.4,160.1 230.4,171.4 C251.4,182.8 284.1,196.3 298.3,205.9 C312.6,215.5 311.6,221.7 315.8,229.2 C320.1,236.7 322.1,243.3 323.8,250.8 C325.4,258.4 325.8,268.1 325.8,274.6 C325.8,281.1 325.3,283.3 323.8,290 C322.2,296.8 317.6,309.6 316.7,315.2 C315.8,320.8 317,321.7 318.4,323.6 C319.8,325.5 321.9,326.2 324.9,326.7 C328,327.3 331.7,327.6 336.8,326.9 C342,326.3 351.5,324.6 355.7,322.9 C359.9,321.2 359.4,321.3 362.2,316.6 C365,311.9 370.7,299.9 372.4,294.9 C374,289.9 373.3,291.3 372.1,286.5 C371,281.7 367.1,274 365.3,266.2 C363.4,258.4 361.7,254.9 361.1,239.6 C360.6,224.3 362.9,186.9 362,174.5 C361.1,162.1 358.9,167.3 355.7,165.3 C352.6,163.3 346.7,163.8 343.3,162.6 C339.8,161.5 340.8,162.4 334.9,158.4 C328.9,154.4 317.4,146.6 307.6,138.8 C297.8,131 283.2,118.4 276,111.5 C268.9,104.6 267.9,103 264.7,97.4 C261.6,91.8 258.9,85.9 256.9,77.9 C254.8,69.9 252.9,58.8 252.5,49.2 C252.2,39.6 253.8,27.9 254.8,20.5 C255.7,13.2 257.2,8.7 258.4,5.1 C259.6,1.5 257.5,-7.7 261.9,-1.2 C266.4,5.3 277.2,30.7 285,44.3 C292.9,58 302.8,72 308.9,80.7 C315.1,89.4 318.5,92.8 322.1,96.7 C325.7,100.7 326.3,102 330.5,104.4 C334.7,106.8 340.3,106.9 347.3,111 C354.4,115.1 361.1,119.5 373,129 C384.9,138.6 407.3,157.9 418.7,168.2 C430.2,178.5 436,184.6 441.6,190.6 C447.3,196.7 449.8,202.3 452.3,204.6 C454.9,206.9 455,209.6 456.7,204.6 C458.5,199.6 462.3,185.4 463,174.5 C463.6,163.7 462.6,151.4 460.6,139.5 C458.5,127.6 456.1,116.8 450.8,103.1 C445.5,89.5 438.1,73.1 428.8,57.6 C419.5,42.1 406,23.5 395.1,10 C384.2,-3.5 375.3,-12.2 363.4,-23.6 C351.4,-34.9 340.5,-38.8 323.5,-58.1 C306.6,-77.3 275.7,-121.7 261.6,-139.1 C247.5,-156.5 248.5,-156.4 238.8,-162.6 C229.2,-168.8 216.2,-170 203.8,-176.1 C191.5,-182.2 178.9,-193.3 164.6,-199.1 C150.4,-204.9 134.2,-207.8 118.4,-210.8 C102.7,-213.8 86.7,-215.4 70.1,-217 C53.6,-218.7 51.5,-219.7 19,-220.8 C-13.4,-221.9 -95.5,-222.2 -124.4,-223.6 C-153.4,-225 -145.9,-226.7 -154.6,-229.3 C-163.2,-231.8 -169.3,-234.7 -176.2,-239.2 C-183.1,-243.6 -189.8,-251.5 -196.2,-256 C-202.6,-260.4 -208.2,-263.3 -214.8,-265.9 C-221.3,-268.6 -226.5,-270 -235.8,-271.9 C-245,-273.7 -262.2,-268.7 -270.4,-277 C-278.7,-285.3 -281.9,-313.5 -285.2,-321.8 C-288.5,-330.1 -286.2,-329.9 -290.4,-326.9 C-294.5,-324 -304.9,-308.8 -309.9,-304 C-315,-299.3 -313.2,-298.4 -320.4,-298.2 C-327.7,-298 -343.8,-302.2 -353.4,-302.8 C-362.9,-303.4 -366.5,-303.8 -377.9,-301.8 C-389.2,-299.8 -413.2,-292.2 -421.3,-290.6 C-429.3,-289 -423.4,-290.4 -426.1,-292.3 C-428.9,-294.3 -433.5,-297.4 -438,-302.2 C-442.5,-307 -449.4,-318.2 -453,-321.1 C-456.5,-324 -457.8,-322.1 -459.4,-319.7 C-461.1,-317.2 -462.3,-310.6 -462.9,-306.4 C-463.5,-302.2 -465.2,-305.7 -463,-294.5 L-463,-294.5 L-463,-294.5 ZM-202.2,95.4 C-202.3,90.9 -202.4,78.1 -202.1,74.4 C-201.9,70.8 -202.3,73.6 -200.8,73.4 C-199.2,73.2 -195.5,73.2 -193.1,73.4 C-190.6,73.7 -188.5,74.6 -186.1,75 C-183.6,75.4 -180,75.3 -178.6,75.8 C-177.1,76.3 -177.5,76.6 -177.4,77.9 C-177.3,79.2 -177,80.6 -178.1,83.5 C-179.2,86.4 -182.7,93.2 -183.9,95.4 C-185.1,97.6 -183.2,93.5 -185.2,96.8 C-187.2,100.1 -193.3,110.9 -196,115 C-198.7,119.2 -200.4,120.8 -201.4,121.8 C-202.5,122.7 -202.1,124 -202.2,120.6 C-202.2,117.3 -201.7,105.9 -201.7,101.7 C-201.7,97.5 -202.1,100 -202.2,95.4 L-202.2,95.4 L-202.2,95.4 Z" style="fill:#FEFEFE;" />
				</g>
			</g>
		</g>
		<g id="مجموعة 82" transform="matrix(0.055177539587020874, 0, 0, 0.055177539587020874, 0.13356220722198486, 252.23353576660156)">
			<g mask="url(#mask_8)">
				<g id="مجموعة 192">
					<path transform="matrix(3.240457773208618, 0, 0, 3.240457773208618, -24.89263916015625, -54.231685638427734)" d="M-463,-294.5 C-460.7,-283.3 -451.8,-249.6 -449.6,-239.2 C-447.4,-228.8 -448.1,-237.9 -449.7,-232.2 C-451.2,-226.5 -456.7,-213.4 -458.9,-204.9 C-461.1,-196.4 -462.3,-188.3 -462.9,-181.1 C-463.6,-173.8 -463.6,-167.6 -462.9,-161.5 C-462.2,-155.4 -460.6,-148.8 -458.8,-144.7 C-456.9,-140.6 -455.7,-137.5 -452,-136.7 C-448.4,-136 -440.3,-139.7 -436.6,-140.1 C-433,-140.5 -432.9,-142.6 -430.3,-139.1 C-427.8,-135.5 -424.4,-124 -421.5,-118.8 C-418.5,-113.5 -416.4,-111 -412.6,-107.6 C-408.9,-104.2 -404.1,-101.1 -398.9,-98.4 C-393.6,-95.7 -388.5,-98.5 -381.3,-91.5 C-374,-84.5 -362.9,-68 -355.3,-56.5 C-347.7,-44.9 -339.1,-30.6 -335.7,-22.2 C-332.3,-13.8 -336.1,-11 -335,-6.1 C-333.8,-1.2 -333.1,0.9 -328.9,7.1 C-324.6,13.3 -318,21.9 -309.2,31 C-300.5,40.1 -282.5,55.3 -276.4,61.8 C-270.4,68.3 -273.8,62.4 -272.7,70.2 C-271.5,78 -269.3,89.2 -269.6,108.7 C-269.9,128.2 -272.3,162.3 -274.8,187.1 C-277.3,212 -280.2,240.3 -284.7,257.8 C-289.2,275.3 -299,285.5 -301.8,292.1 C-304.7,298.8 -302.4,296.2 -301.9,297.7 C-301.4,299.3 -300.4,300.4 -298.8,301.4 C-297.1,302.4 -297.1,303.3 -291.8,303.7 C-286.4,304 -273.9,304.1 -266.5,303.4 C-259.2,302.7 -252.8,301.2 -247.6,299.4 C-242.5,297.7 -238.4,295.8 -236,292.8 C-233.5,289.8 -232.9,288.6 -233.1,281.6 C-233.2,274.6 -237.3,265.2 -236.7,250.8 C-236.2,236.5 -231.4,205.3 -229.7,195.5 C-228,185.7 -227.6,192.1 -226.6,191.8 C-225.7,191.5 -224.9,192 -223.8,193.8 C-222.8,195.5 -223.2,198.7 -220.4,202.5 C-217.6,206.4 -216.3,208.3 -207,216.9 C-197.8,225.4 -179.2,242.5 -165.1,253.9 C-150.9,265.3 -130.3,279.9 -122.3,285.2 C-114.4,290.6 -119.1,286.4 -117.4,286 C-115.8,285.6 -114.1,285.3 -112.5,283.1 C-111,280.8 -109,277.3 -108,272.5 C-107.1,267.7 -106.7,258.6 -106.8,254.3 C-106.9,250 -106.5,250.2 -108.4,246.6 C-110.4,243 -113.1,237.2 -118.5,232.6 C-123.8,228 -135.2,223.1 -140.6,219.1 C-145.9,215.2 -147.1,214.1 -150.7,208.8 C-154.4,203.5 -160.1,192.5 -162.4,187.1 C-164.8,181.8 -164.8,179.8 -164.8,176.6 C-164.8,173.5 -165,172.5 -162.6,168.2 C-160.3,163.9 -155.4,156.6 -150.8,150.7 C-146.2,144.8 -143.5,141.2 -134.9,132.9 C-126.4,124.7 -108.4,108.1 -99.7,101 C-90.9,93.9 -87.4,95.7 -82.4,90.5 C-77.4,85.4 -76.8,76.6 -69.8,70.2 C-62.8,63.8 -49.1,56.7 -40.5,52 C-31.8,47.3 -23.5,44 -18,42 C-12.6,40 -9.8,39.9 -7.5,40 C-5.3,40.2 -4.7,38.2 -4.5,42.9 C-4.3,47.6 -6.5,60.6 -6.5,68.1 C-6.5,75.6 -8,69.2 -4.4,87.7 C-0.8,106.3 11.8,161 15,179.4 C18.2,197.8 15.9,192.7 14.9,198.3 C13.9,203.9 11.4,208.2 8.7,213 C6,217.9 5,220.8 -1.3,227.4 C-7.5,234.1 -18.2,245.1 -28.5,253 C-38.9,260.9 -53.2,270.1 -63.5,274.7 C-73.9,279.3 -85.9,278.9 -90.8,280.9 C-95.8,282.8 -92.9,282.8 -93.3,286.5 C-93.6,290.2 -105.1,300.1 -92.9,303 C-74.4,309.5 -30.8,306 -29.7,298.9 C-15.6,298.6 -14.9,298.7 -8.3,301.5 C5.6,291.3 50.3,254 63.1,242.3 C76,230.5 67.8,239.9 69.1,231.2 C70.5,222.5 68.9,207.9 71.3,189.9 C73.7,171.9 79.3,139.6 83.3,123.4 C87.3,107.2 92.4,99 95.3,92.7 C98.3,86.4 99,87.2 100.9,85.5 C102.9,83.9 105.3,82.8 107.2,82.8 C109.2,82.8 107.6,80.6 112.8,85.6 C117.9,90.6 128.3,104.2 138.2,112.9 C148.1,121.6 157,128.1 172.3,137.8 C187.7,147.6 209.4,160.1 230.4,171.4 C251.4,182.8 284.1,196.3 298.3,205.9 C312.6,215.5 311.6,221.7 315.8,229.2 C320.1,236.7 322.1,243.3 323.8,250.8 C325.4,258.4 325.8,268.1 325.8,274.6 C325.8,281.1 325.3,283.3 323.8,290 C322.2,296.8 317.6,309.6 316.7,315.2 C315.8,320.8 317,321.7 318.4,323.6 C319.8,325.5 321.9,326.2 324.9,326.7 C328,327.3 331.7,327.6 336.8,326.9 C342,326.3 351.5,324.6 355.7,322.9 C359.9,321.2 359.4,321.3 362.2,316.6 C365,311.9 370.7,299.9 372.4,294.9 C374,289.9 373.3,291.3 372.1,286.5 C371,281.7 367.1,274 365.3,266.2 C363.4,258.4 361.7,254.9 361.1,239.6 C360.6,224.3 362.9,186.9 362,174.5 C361.1,162.1 358.9,167.3 355.7,165.3 C352.6,163.3 346.7,163.8 343.3,162.6 C339.8,161.5 340.8,162.4 334.9,158.4 C328.9,154.4 317.4,146.6 307.6,138.8 C297.8,131 283.2,118.4 276,111.5 C268.9,104.6 267.9,103 264.7,97.4 C261.6,91.8 258.9,85.9 256.9,77.9 C254.8,69.9 252.9,58.8 252.5,49.2 C252.2,39.6 253.8,27.9 254.8,20.5 C255.7,13.2 257.2,8.7 258.4,5.1 C259.6,1.5 257.5,-7.7 261.9,-1.2 C266.4,5.3 277.2,30.7 285,44.3 C292.9,58 302.8,72 308.9,80.7 C315.1,89.4 318.5,92.8 322.1,96.7 C325.7,100.7 326.3,102 330.5,104.4 C334.7,106.8 340.3,106.9 347.3,111 C354.4,115.1 361.1,119.5 373,129 C384.9,138.6 407.3,157.9 418.7,168.2 C430.2,178.5 436,184.6 441.6,190.6 C447.3,196.7 449.8,202.3 452.3,204.6 C454.9,206.9 455,209.6 456.7,204.6 C458.5,199.6 462.3,185.4 463,174.5 C463.6,163.7 462.6,151.4 460.6,139.5 C458.5,127.6 456.1,116.8 450.8,103.1 C445.5,89.5 438.1,73.1 428.8,57.6 C419.5,42.1 406,23.5 395.1,10 C384.2,-3.5 375.3,-12.2 363.4,-23.6 C351.4,-34.9 340.5,-38.8 323.5,-58.1 C306.6,-77.3 275.7,-121.7 261.6,-139.1 C247.5,-156.5 248.5,-156.4 238.8,-162.6 C229.2,-168.8 216.2,-170 203.8,-176.1 C191.5,-182.2 178.9,-193.3 164.6,-199.1 C150.4,-204.9 134.2,-207.8 118.4,-210.8 C102.7,-213.8 86.7,-215.4 70.1,-217 C53.6,-218.7 51.5,-219.7 19,-220.8 C-13.4,-221.9 -95.5,-222.2 -124.4,-223.6 C-153.4,-225 -145.9,-226.7 -154.6,-229.3 C-163.2,-231.8 -169.3,-234.7 -176.2,-239.2 C-183.1,-243.6 -189.8,-251.5 -196.2,-256 C-202.6,-260.4 -208.2,-263.3 -214.8,-265.9 C-221.3,-268.6 -226.5,-270 -235.8,-271.9 C-245,-273.7 -262.2,-268.7 -270.4,-277 C-278.7,-285.3 -281.9,-313.5 -285.2,-321.8 C-288.5,-330.1 -286.2,-329.9 -290.4,-326.9 C-294.5,-324 -304.9,-308.8 -309.9,-304 C-315,-299.3 -313.2,-298.4 -320.4,-298.2 C-327.7,-298 -343.8,-302.2 -353.4,-302.8 C-362.9,-303.4 -366.5,-303.8 -377.9,-301.8 C-389.2,-299.8 -413.2,-292.2 -421.3,-290.6 C-429.3,-289 -423.4,-290.4 -426.1,-292.3 C-428.9,-294.3 -433.5,-297.4 -438,-302.2 C-442.5,-307 -449.4,-318.2 -453,-321.1 C-456.5,-324 -457.8,-322.1 -459.4,-319.7 C-461.1,-317.2 -462.3,-310.6 -462.9,-306.4 C-463.5,-302.2 -465.2,-305.7 -463,-294.5 L-463,-294.5 L-463,-294.5 ZM-202.2,95.4 C-202.3,90.9 -202.4,78.1 -202.1,74.4 C-201.9,70.8 -202.3,73.6 -200.8,73.4 C-199.2,73.2 -195.5,73.2 -193.1,73.4 C-190.6,73.7 -188.5,74.6 -186.1,75 C-183.6,75.4 -180,75.3 -178.6,75.8 C-177.1,76.3 -177.5,76.6 -177.4,77.9 C-177.3,79.2 -177,80.6 -178.1,83.5 C-179.2,86.4 -182.7,93.2 -183.9,95.4 C-185.1,97.6 -183.2,93.5 -185.2,96.8 C-187.2,100.1 -193.3,110.9 -196,115 C-198.7,119.2 -200.4,120.8 -201.4,121.8 C-202.5,122.7 -202.1,124 -202.2,120.6 C-202.2,117.3 -201.7,105.9 -201.7,101.7 C-201.7,97.5 -202.1,100 -202.2,95.4 L-202.2,95.4 L-202.2,95.4 Z" style="fill:#FEFEFE;" />
				</g>
			</g>
		</g>
		<g id="مجموعة 112" transform="matrix(0.055177539587020874, 0, 0, 0.055177539587020874, -216.02362060546875, 126.973876953125)">
			<g mask="url(#mask_9)">
				<g id="مجموعة 132">
					<path transform="matrix(3.240457773208618, 0, 0, 3.240457773208618, -24.89263916015625, -54.231685638427734)" d="M-463,-294.5 C-460.7,-283.3 -451.8,-249.6 -449.6,-239.2 C-447.4,-228.8 -448.1,-237.9 -449.7,-232.2 C-451.2,-226.5 -456.7,-213.4 -458.9,-204.9 C-461.1,-196.4 -462.3,-188.3 -462.9,-181.1 C-463.6,-173.8 -463.6,-167.6 -462.9,-161.5 C-462.2,-155.4 -460.6,-148.8 -458.8,-144.7 C-456.9,-140.6 -455.7,-137.5 -452,-136.7 C-448.4,-136 -440.3,-139.7 -436.6,-140.1 C-433,-140.5 -432.9,-142.6 -430.3,-139.1 C-427.8,-135.5 -424.4,-124 -421.5,-118.8 C-418.5,-113.5 -416.4,-111 -412.6,-107.6 C-408.9,-104.2 -404.1,-101.1 -398.9,-98.4 C-393.6,-95.7 -388.5,-98.5 -381.3,-91.5 C-374,-84.5 -362.9,-68 -355.3,-56.5 C-347.7,-44.9 -339.1,-30.6 -335.7,-22.2 C-332.3,-13.8 -336.1,-11 -335,-6.1 C-333.8,-1.2 -333.1,0.9 -328.9,7.1 C-324.6,13.3 -318,21.9 -309.2,31 C-300.5,40.1 -282.5,55.3 -276.4,61.8 C-270.4,68.3 -273.8,62.4 -272.7,70.2 C-271.5,78 -269.3,89.2 -269.6,108.7 C-269.9,128.2 -272.3,162.3 -274.8,187.1 C-277.3,212 -280.2,240.3 -284.7,257.8 C-289.2,275.3 -299,285.5 -301.8,292.1 C-304.7,298.8 -302.4,296.2 -301.9,297.7 C-301.4,299.3 -300.4,300.4 -298.8,301.4 C-297.1,302.4 -297.1,303.3 -291.8,303.7 C-286.4,304 -273.9,304.1 -266.5,303.4 C-259.2,302.7 -252.8,301.2 -247.6,299.4 C-242.5,297.7 -238.4,295.8 -236,292.8 C-233.5,289.8 -232.9,288.6 -233.1,281.6 C-233.2,274.6 -237.3,265.2 -236.7,250.8 C-236.2,236.5 -231.4,205.3 -229.7,195.5 C-228,185.7 -227.6,192.1 -226.6,191.8 C-225.7,191.5 -224.9,192 -223.8,193.8 C-222.8,195.5 -223.2,198.7 -220.4,202.5 C-217.6,206.4 -216.3,208.3 -207,216.9 C-197.8,225.4 -179.2,242.5 -165.1,253.9 C-150.9,265.3 -130.3,279.9 -122.3,285.2 C-114.4,290.6 -119.1,286.4 -117.4,286 C-115.8,285.6 -114.1,285.3 -112.5,283.1 C-111,280.8 -109,277.3 -108,272.5 C-107.1,267.7 -106.7,258.6 -106.8,254.3 C-106.9,250 -106.5,250.2 -108.4,246.6 C-110.4,243 -113.1,237.2 -118.5,232.6 C-123.8,228 -135.2,223.1 -140.6,219.1 C-145.9,215.2 -147.1,214.1 -150.7,208.8 C-154.4,203.5 -160.1,192.5 -162.4,187.1 C-164.8,181.8 -164.8,179.8 -164.8,176.6 C-164.8,173.5 -165,172.5 -162.6,168.2 C-160.3,163.9 -155.4,156.6 -150.8,150.7 C-146.2,144.8 -143.5,141.2 -134.9,132.9 C-126.4,124.7 -108.4,108.1 -99.7,101 C-90.9,93.9 -87.4,95.7 -82.4,90.5 C-77.4,85.4 -76.8,76.6 -69.8,70.2 C-62.8,63.8 -49.1,56.7 -40.5,52 C-31.8,47.3 -23.5,44 -18,42 C-12.6,40 -9.8,39.9 -7.5,40 C-5.3,40.2 -4.7,38.2 -4.5,42.9 C-4.3,47.6 -6.5,60.6 -6.5,68.1 C-6.5,75.6 -8,69.2 -4.4,87.7 C-0.8,106.3 11.8,161 15,179.4 C18.2,197.8 15.9,192.7 14.9,198.3 C13.9,203.9 11.4,208.2 8.7,213 C6,217.9 5,220.8 -1.3,227.4 C-7.5,234.1 -18.2,245.1 -28.5,253 C-38.9,260.9 -53.2,270.1 -63.5,274.7 C-73.9,279.3 -85.9,278.9 -90.8,280.9 C-95.8,282.8 -92.9,282.8 -93.3,286.5 C-93.6,290.2 -105.1,300.1 -92.9,303 C-74.4,309.5 -30.8,306 -29.7,298.9 C-15.6,298.6 -14.9,298.7 -8.3,301.5 C5.6,291.3 50.3,254 63.1,242.3 C76,230.5 67.8,239.9 69.1,231.2 C70.5,222.5 68.9,207.9 71.3,189.9 C73.7,171.9 79.3,139.6 83.3,123.4 C87.3,107.2 92.4,99 95.3,92.7 C98.3,86.4 99,87.2 100.9,85.5 C102.9,83.9 105.3,82.8 107.2,82.8 C109.2,82.8 107.6,80.6 112.8,85.6 C117.9,90.6 128.3,104.2 138.2,112.9 C148.1,121.6 157,128.1 172.3,137.8 C187.7,147.6 209.4,160.1 230.4,171.4 C251.4,182.8 284.1,196.3 298.3,205.9 C312.6,215.5 311.6,221.7 315.8,229.2 C320.1,236.7 322.1,243.3 323.8,250.8 C325.4,258.4 325.8,268.1 325.8,274.6 C325.8,281.1 325.3,283.3 323.8,290 C322.2,296.8 317.6,309.6 316.7,315.2 C315.8,320.8 317,321.7 318.4,323.6 C319.8,325.5 321.9,326.2 324.9,326.7 C328,327.3 331.7,327.6 336.8,326.9 C342,326.3 351.5,324.6 355.7,322.9 C359.9,321.2 359.4,321.3 362.2,316.6 C365,311.9 370.7,299.9 372.4,294.9 C374,289.9 373.3,291.3 372.1,286.5 C371,281.7 367.1,274 365.3,266.2 C363.4,258.4 361.7,254.9 361.1,239.6 C360.6,224.3 362.9,186.9 362,174.5 C361.1,162.1 358.9,167.3 355.7,165.3 C352.6,163.3 346.7,163.8 343.3,162.6 C339.8,161.5 340.8,162.4 334.9,158.4 C328.9,154.4 317.4,146.6 307.6,138.8 C297.8,131 283.2,118.4 276,111.5 C268.9,104.6 267.9,103 264.7,97.4 C261.6,91.8 258.9,85.9 256.9,77.9 C254.8,69.9 252.9,58.8 252.5,49.2 C252.2,39.6 253.8,27.9 254.8,20.5 C255.7,13.2 257.2,8.7 258.4,5.1 C259.6,1.5 257.5,-7.7 261.9,-1.2 C266.4,5.3 277.2,30.7 285,44.3 C292.9,58 302.8,72 308.9,80.7 C315.1,89.4 318.5,92.8 322.1,96.7 C325.7,100.7 326.3,102 330.5,104.4 C334.7,106.8 340.3,106.9 347.3,111 C354.4,115.1 361.1,119.5 373,129 C384.9,138.6 407.3,157.9 418.7,168.2 C430.2,178.5 436,184.6 441.6,190.6 C447.3,196.7 449.8,202.3 452.3,204.6 C454.9,206.9 455,209.6 456.7,204.6 C458.5,199.6 462.3,185.4 463,174.5 C463.6,163.7 462.6,151.4 460.6,139.5 C458.5,127.6 456.1,116.8 450.8,103.1 C445.5,89.5 438.1,73.1 428.8,57.6 C419.5,42.1 406,23.5 395.1,10 C384.2,-3.5 375.3,-12.2 363.4,-23.6 C351.4,-34.9 340.5,-38.8 323.5,-58.1 C306.6,-77.3 275.7,-121.7 261.6,-139.1 C247.5,-156.5 248.5,-156.4 238.8,-162.6 C229.2,-168.8 216.2,-170 203.8,-176.1 C191.5,-182.2 178.9,-193.3 164.6,-199.1 C150.4,-204.9 134.2,-207.8 118.4,-210.8 C102.7,-213.8 86.7,-215.4 70.1,-217 C53.6,-218.7 51.5,-219.7 19,-220.8 C-13.4,-221.9 -95.5,-222.2 -124.4,-223.6 C-153.4,-225 -145.9,-226.7 -154.6,-229.3 C-163.2,-231.8 -169.3,-234.7 -176.2,-239.2 C-183.1,-243.6 -189.8,-251.5 -196.2,-256 C-202.6,-260.4 -208.2,-263.3 -214.8,-265.9 C-221.3,-268.6 -226.5,-270 -235.8,-271.9 C-245,-273.7 -262.2,-268.7 -270.4,-277 C-278.7,-285.3 -281.9,-313.5 -285.2,-321.8 C-288.5,-330.1 -286.2,-329.9 -290.4,-326.9 C-294.5,-324 -304.9,-308.8 -309.9,-304 C-315,-299.3 -313.2,-298.4 -320.4,-298.2 C-327.7,-298 -343.8,-302.2 -353.4,-302.8 C-362.9,-303.4 -366.5,-303.8 -377.9,-301.8 C-389.2,-299.8 -413.2,-292.2 -421.3,-290.6 C-429.3,-289 -423.4,-290.4 -426.1,-292.3 C-428.9,-294.3 -433.5,-297.4 -438,-302.2 C-442.5,-307 -449.4,-318.2 -453,-321.1 C-456.5,-324 -457.8,-322.1 -459.4,-319.7 C-461.1,-317.2 -462.3,-310.6 -462.9,-306.4 C-463.5,-302.2 -465.2,-305.7 -463,-294.5 L-463,-294.5 L-463,-294.5 ZM-202.2,95.4 C-202.3,90.9 -202.4,78.1 -202.1,74.4 C-201.9,70.8 -202.3,73.6 -200.8,73.4 C-199.2,73.2 -195.5,73.2 -193.1,73.4 C-190.6,73.7 -188.5,74.6 -186.1,75 C-183.6,75.4 -180,75.3 -178.6,75.8 C-177.1,76.3 -177.5,76.6 -177.4,77.9 C-177.3,79.2 -177,80.6 -178.1,83.5 C-179.2,86.4 -182.7,93.2 -183.9,95.4 C-185.1,97.6 -183.2,93.5 -185.2,96.8 C-187.2,100.1 -193.3,110.9 -196,115 C-198.7,119.2 -200.4,120.8 -201.4,121.8 C-202.5,122.7 -202.1,124 -202.2,120.6 C-202.2,117.3 -201.7,105.9 -201.7,101.7 C-201.7,97.5 -202.1,100 -202.2,95.4 L-202.2,95.4 L-202.2,95.4 Z" style="fill:#FEFEFE;" />
				</g>
			</g>
		</g>
		<g id="مجموعة 122" transform="matrix(0.055177539587020874, 0, 0, 0.055177539587020874, -1.786865234375, -15.8505859375)">
			<g mask="url(#mask_10)">
				<g id="مجموعة 72">
					<path transform="matrix(3.240457773208618, 0, 0, 3.240457773208618, -24.89263916015625, -54.231685638427734)" d="M-463,-294.5 C-460.7,-283.3 -451.8,-249.6 -449.6,-239.2 C-447.4,-228.8 -448.1,-237.9 -449.7,-232.2 C-451.2,-226.5 -456.7,-213.4 -458.9,-204.9 C-461.1,-196.4 -462.3,-188.3 -462.9,-181.1 C-463.6,-173.8 -463.6,-167.6 -462.9,-161.5 C-462.2,-155.4 -460.6,-148.8 -458.8,-144.7 C-456.9,-140.6 -455.7,-137.5 -452,-136.7 C-448.4,-136 -440.3,-139.7 -436.6,-140.1 C-433,-140.5 -432.9,-142.6 -430.3,-139.1 C-427.8,-135.5 -424.4,-124 -421.5,-118.8 C-418.5,-113.5 -416.4,-111 -412.6,-107.6 C-408.9,-104.2 -404.1,-101.1 -398.9,-98.4 C-393.6,-95.7 -388.5,-98.5 -381.3,-91.5 C-374,-84.5 -362.9,-68 -355.3,-56.5 C-347.7,-44.9 -339.1,-30.6 -335.7,-22.2 C-332.3,-13.8 -336.1,-11 -335,-6.1 C-333.8,-1.2 -333.1,0.9 -328.9,7.1 C-324.6,13.3 -318,21.9 -309.2,31 C-300.5,40.1 -282.5,55.3 -276.4,61.8 C-270.4,68.3 -273.8,62.4 -272.7,70.2 C-271.5,78 -269.3,89.2 -269.6,108.7 C-269.9,128.2 -272.3,162.3 -274.8,187.1 C-277.3,212 -280.2,240.3 -284.7,257.8 C-289.2,275.3 -299,285.5 -301.8,292.1 C-304.7,298.8 -302.4,296.2 -301.9,297.7 C-301.4,299.3 -300.4,300.4 -298.8,301.4 C-297.1,302.4 -297.1,303.3 -291.8,303.7 C-286.4,304 -273.9,304.1 -266.5,303.4 C-259.2,302.7 -252.8,301.2 -247.6,299.4 C-242.5,297.7 -238.4,295.8 -236,292.8 C-233.5,289.8 -232.9,288.6 -233.1,281.6 C-233.2,274.6 -237.3,265.2 -236.7,250.8 C-236.2,236.5 -231.4,205.3 -229.7,195.5 C-228,185.7 -227.6,192.1 -226.6,191.8 C-225.7,191.5 -224.9,192 -223.8,193.8 C-222.8,195.5 -223.2,198.7 -220.4,202.5 C-217.6,206.4 -216.3,208.3 -207,216.9 C-197.8,225.4 -179.2,242.5 -165.1,253.9 C-150.9,265.3 -130.3,279.9 -122.3,285.2 C-114.4,290.6 -119.1,286.4 -117.4,286 C-115.8,285.6 -114.1,285.3 -112.5,283.1 C-111,280.8 -109,277.3 -108,272.5 C-107.1,267.7 -106.7,258.6 -106.8,254.3 C-106.9,250 -106.5,250.2 -108.4,246.6 C-110.4,243 -113.1,237.2 -118.5,232.6 C-123.8,228 -135.2,223.1 -140.6,219.1 C-145.9,215.2 -147.1,214.1 -150.7,208.8 C-154.4,203.5 -160.1,192.5 -162.4,187.1 C-164.8,181.8 -164.8,179.8 -164.8,176.6 C-164.8,173.5 -165,172.5 -162.6,168.2 C-160.3,163.9 -155.4,156.6 -150.8,150.7 C-146.2,144.8 -143.5,141.2 -134.9,132.9 C-126.4,124.7 -108.4,108.1 -99.7,101 C-90.9,93.9 -87.4,95.7 -82.4,90.5 C-77.4,85.4 -76.8,76.6 -69.8,70.2 C-62.8,63.8 -49.1,56.7 -40.5,52 C-31.8,47.3 -23.5,44 -18,42 C-12.6,40 -9.8,39.9 -7.5,40 C-5.3,40.2 -4.7,38.2 -4.5,42.9 C-4.3,47.6 -6.5,60.6 -6.5,68.1 C-6.5,75.6 -8,69.2 -4.4,87.7 C-0.8,106.3 11.8,161 15,179.4 C18.2,197.8 15.9,192.7 14.9,198.3 C13.9,203.9 11.4,208.2 8.7,213 C6,217.9 5,220.8 -1.3,227.4 C-7.5,234.1 -18.2,245.1 -28.5,253 C-38.9,260.9 -53.2,270.1 -63.5,274.7 C-73.9,279.3 -85.9,278.9 -90.8,280.9 C-95.8,282.8 -92.9,282.8 -93.3,286.5 C-93.6,290.2 -105.1,300.1 -92.9,303 C-74.4,309.5 -30.8,306 -29.7,298.9 C-15.6,298.6 -14.9,298.7 -8.3,301.5 C5.6,291.3 50.3,254 63.1,242.3 C76,230.5 67.8,239.9 69.1,231.2 C70.5,222.5 68.9,207.9 71.3,189.9 C73.7,171.9 79.3,139.6 83.3,123.4 C87.3,107.2 92.4,99 95.3,92.7 C98.3,86.4 99,87.2 100.9,85.5 C102.9,83.9 105.3,82.8 107.2,82.8 C109.2,82.8 107.6,80.6 112.8,85.6 C117.9,90.6 128.3,104.2 138.2,112.9 C148.1,121.6 157,128.1 172.3,137.8 C187.7,147.6 209.4,160.1 230.4,171.4 C251.4,182.8 284.1,196.3 298.3,205.9 C312.6,215.5 311.6,221.7 315.8,229.2 C320.1,236.7 322.1,243.3 323.8,250.8 C325.4,258.4 325.8,268.1 325.8,274.6 C325.8,281.1 325.3,283.3 323.8,290 C322.2,296.8 317.6,309.6 316.7,315.2 C315.8,320.8 317,321.7 318.4,323.6 C319.8,325.5 321.9,326.2 324.9,326.7 C328,327.3 331.7,327.6 336.8,326.9 C342,326.3 351.5,324.6 355.7,322.9 C359.9,321.2 359.4,321.3 362.2,316.6 C365,311.9 370.7,299.9 372.4,294.9 C374,289.9 373.3,291.3 372.1,286.5 C371,281.7 367.1,274 365.3,266.2 C363.4,258.4 361.7,254.9 361.1,239.6 C360.6,224.3 362.9,186.9 362,174.5 C361.1,162.1 358.9,167.3 355.7,165.3 C352.6,163.3 346.7,163.8 343.3,162.6 C339.8,161.5 340.8,162.4 334.9,158.4 C328.9,154.4 317.4,146.6 307.6,138.8 C297.8,131 283.2,118.4 276,111.5 C268.9,104.6 267.9,103 264.7,97.4 C261.6,91.8 258.9,85.9 256.9,77.9 C254.8,69.9 252.9,58.8 252.5,49.2 C252.2,39.6 253.8,27.9 254.8,20.5 C255.7,13.2 257.2,8.7 258.4,5.1 C259.6,1.5 257.5,-7.7 261.9,-1.2 C266.4,5.3 277.2,30.7 285,44.3 C292.9,58 302.8,72 308.9,80.7 C315.1,89.4 318.5,92.8 322.1,96.7 C325.7,100.7 326.3,102 330.5,104.4 C334.7,106.8 340.3,106.9 347.3,111 C354.4,115.1 361.1,119.5 373,129 C384.9,138.6 407.3,157.9 418.7,168.2 C430.2,178.5 436,184.6 441.6,190.6 C447.3,196.7 449.8,202.3 452.3,204.6 C454.9,206.9 455,209.6 456.7,204.6 C458.5,199.6 462.3,185.4 463,174.5 C463.6,163.7 462.6,151.4 460.6,139.5 C458.5,127.6 456.1,116.8 450.8,103.1 C445.5,89.5 438.1,73.1 428.8,57.6 C419.5,42.1 406,23.5 395.1,10 C384.2,-3.5 375.3,-12.2 363.4,-23.6 C351.4,-34.9 340.5,-38.8 323.5,-58.1 C306.6,-77.3 275.7,-121.7 261.6,-139.1 C247.5,-156.5 248.5,-156.4 238.8,-162.6 C229.2,-168.8 216.2,-170 203.8,-176.1 C191.5,-182.2 178.9,-193.3 164.6,-199.1 C150.4,-204.9 134.2,-207.8 118.4,-210.8 C102.7,-213.8 86.7,-215.4 70.1,-217 C53.6,-218.7 51.5,-219.7 19,-220.8 C-13.4,-221.9 -95.5,-222.2 -124.4,-223.6 C-153.4,-225 -145.9,-226.7 -154.6,-229.3 C-163.2,-231.8 -169.3,-234.7 -176.2,-239.2 C-183.1,-243.6 -189.8,-251.5 -196.2,-256 C-202.6,-260.4 -208.2,-263.3 -214.8,-265.9 C-221.3,-268.6 -226.5,-270 -235.8,-271.9 C-245,-273.7 -262.2,-268.7 -270.4,-277 C-278.7,-285.3 -281.9,-313.5 -285.2,-321.8 C-288.5,-330.1 -286.2,-329.9 -290.4,-326.9 C-294.5,-324 -304.9,-308.8 -309.9,-304 C-315,-299.3 -313.2,-298.4 -320.4,-298.2 C-327.7,-298 -343.8,-302.2 -353.4,-302.8 C-362.9,-303.4 -366.5,-303.8 -377.9,-301.8 C-389.2,-299.8 -413.2,-292.2 -421.3,-290.6 C-429.3,-289 -423.4,-290.4 -426.1,-292.3 C-428.9,-294.3 -433.5,-297.4 -438,-302.2 C-442.5,-307 -449.4,-318.2 -453,-321.1 C-456.5,-324 -457.8,-322.1 -459.4,-319.7 C-461.1,-317.2 -462.3,-310.6 -462.9,-306.4 C-463.5,-302.2 -465.2,-305.7 -463,-294.5 L-463,-294.5 L-463,-294.5 ZM-202.2,95.4 C-202.3,90.9 -202.4,78.1 -202.1,74.4 C-201.9,70.8 -202.3,73.6 -200.8,73.4 C-199.2,73.2 -195.5,73.2 -193.1,73.4 C-190.6,73.7 -188.5,74.6 -186.1,75 C-183.6,75.4 -180,75.3 -178.6,75.8 C-177.1,76.3 -177.5,76.6 -177.4,77.9 C-177.3,79.2 -177,80.6 -178.1,83.5 C-179.2,86.4 -182.7,93.2 -183.9,95.4 C-185.1,97.6 -183.2,93.5 -185.2,96.8 C-187.2,100.1 -193.3,110.9 -196,115 C-198.7,119.2 -200.4,120.8 -201.4,121.8 C-202.5,122.7 -202.1,124 -202.2,120.6 C-202.2,117.3 -201.7,105.9 -201.7,101.7 C-201.7,97.5 -202.1,100 -202.2,95.4 L-202.2,95.4 L-202.2,95.4 Z" style="fill:#FEFEFE;" />
				</g>
			</g>
		</g>
		<path d="M-340.3,228.2" fill-rule="evenodd" style="fill:#F3F3F3;" />
	</g>
</svg>