<?xml version="1.0" encoding="UTF-8"?>
<!-- Created with Grafika (https://www.grafika.cc/) -->
<svg xmlns="http://www.w3.org/2000/svg" xmlns:svg="http://www.w3.org/2000/svg" xmlns:xlink="http://www.w3.org/1999/xlink" width="4096" height="4096" viewBox="0 0 2048 2048" preserveAspectRatio="xMidYMid meet">
	<path transform="matrix(1.620228886604309, 0, 0, 1.620228886604309, 1024, 1024)" d="M-462.96,-294.48 C-460.74,-283.28 -451.82,-249.57 -449.6,-239.18 C-447.39,-228.8 -448.14,-237.9 -449.68,-232.18 C-451.23,-226.47 -456.66,-213.4 -458.87,-204.88 C-461.07,-196.37 -462.25,-188.32 -462.93,-181.08 C-463.6,-173.85 -463.61,-167.55 -462.91,-161.48 C-462.22,-155.42 -460.56,-148.81 -458.75,-144.68 C-456.94,-140.56 -455.74,-137.51 -452.05,-136.74 C-448.37,-135.98 -440.27,-139.7 -436.65,-140.08 C-433.04,-140.47 -432.88,-142.62 -430.35,-139.07 C-427.83,-135.52 -424.45,-124.03 -421.49,-118.78 C-418.54,-113.54 -416.4,-110.98 -412.62,-107.58 C-408.85,-104.19 -404.07,-101.08 -398.85,-98.4 C-393.63,-95.71 -388.55,-98.47 -381.29,-91.48 C-374.03,-84.5 -362.88,-68.03 -355.28,-56.48 C-347.68,-44.93 -339.08,-30.58 -335.7,-22.18 C-332.32,-13.78 -336.12,-10.96 -334.98,-6.08 C-333.84,-1.21 -333.14,0.89 -328.85,7.07 C-324.56,13.25 -317.98,21.89 -309.24,31.02 C-300.51,40.14 -282.54,55.28 -276.45,61.82 C-270.35,68.35 -273.81,62.4 -272.67,70.22 C-271.53,78.03 -269.26,89.23 -269.6,108.72 C-269.95,128.2 -272.25,162.26 -274.77,187.11 C-277.29,211.96 -280.2,240.31 -284.71,257.81 C-289.22,275.31 -298.96,285.46 -301.82,292.11 C-304.68,298.76 -302.38,296.17 -301.87,297.71 C-301.36,299.26 -300.44,300.4 -298.75,301.39 C-297.07,302.39 -297.12,303.34 -291.75,303.68 C-286.39,304.02 -273.9,304.14 -266.55,303.44 C-259.2,302.73 -252.75,301.2 -247.65,299.43 C-242.55,297.66 -238.39,295.78 -235.96,292.81 C-233.53,289.84 -232.95,288.61 -233.08,281.61 C-233.2,274.61 -237.29,265.16 -236.73,250.81 C-236.18,236.46 -231.4,205.35 -229.72,195.51 C-228.04,185.68 -227.63,192.07 -226.65,191.78 C-225.68,191.48 -224.89,191.97 -223.85,193.76 C-222.81,195.54 -223.21,198.66 -220.41,202.51 C-217.61,206.37 -216.28,208.31 -207.05,216.88 C-197.83,225.45 -179.17,242.52 -165.05,253.92 C-150.94,265.31 -130.29,279.89 -122.35,285.24 C-114.42,290.58 -119.09,286.36 -117.45,286 C-115.82,285.64 -114.13,285.32 -112.55,283.07 C-110.98,280.82 -108.98,277.31 -108.02,272.51 C-107.06,267.72 -106.72,258.63 -106.79,254.31 C-106.86,250 -106.47,250.23 -108.42,246.61 C-110.37,243 -113.13,237.19 -118.48,232.61 C-123.84,228.04 -135.18,223.11 -140.55,219.14 C-145.93,215.18 -147.08,214.15 -150.72,208.81 C-154.36,203.48 -160.05,192.48 -162.4,187.11 C-164.75,181.75 -164.77,179.76 -164.81,176.61 C-164.85,173.46 -164.96,172.53 -162.64,168.21 C-160.31,163.9 -155.45,156.59 -150.83,150.71 C-146.22,144.84 -143.48,141.23 -134.95,132.95 C-126.42,124.66 -108.42,108.09 -99.66,101.02 C-90.9,93.94 -87.38,95.65 -82.4,90.52 C-77.41,85.38 -76.75,76.63 -69.76,70.22 C-62.77,63.8 -49.07,56.7 -40.45,52 C-31.84,47.31 -23.54,44.04 -18.05,42.05 C-12.57,40.05 -9.81,39.89 -7.55,40.04 C-5.3,40.18 -4.68,38.24 -4.51,42.92 C-4.34,47.6 -6.55,60.65 -6.53,68.12 C-6.52,75.58 -8,69.17 -4.41,87.72 C-0.82,106.27 11.79,160.98 15.01,179.41 C18.23,197.85 15.95,192.71 14.9,198.31 C13.86,203.91 11.43,208.16 8.74,213.01 C6.05,217.87 4.96,220.76 -1.25,227.43 C-7.47,234.1 -18.17,245.13 -28.55,253.01 C-38.94,260.89 -53.17,270.06 -63.55,274.7 C-73.94,279.34 -85.9,278.9 -90.85,280.87 C-95.81,282.84 -92.93,282.82 -93.28,286.51 C-93.63,290.21 -105.14,300.15 -92.95,303.01 C-74.43,309.54 -30.77,305.97 -29.67,298.85 C-15.56,298.59 -14.92,298.66 -8.25,301.5 C5.63,291.26 50.25,253.97 63.15,242.26 C76.04,230.54 67.76,239.94 69.12,231.21 C70.48,222.49 68.92,207.88 71.29,189.91 C73.66,171.95 79.31,139.62 83.32,123.42 C87.33,107.21 92.41,99.01 95.34,92.69 C98.28,86.38 98.96,87.17 100.94,85.52 C102.93,83.88 105.28,82.82 107.24,82.83 C109.21,82.85 107.59,80.6 112.75,85.62 C117.9,90.63 128.26,104.21 138.19,112.92 C148.13,121.62 156.97,128.09 172.34,137.84 C187.72,147.59 209.44,160.08 230.44,171.42 C251.44,182.77 284.11,196.29 298.34,205.92 C312.58,215.55 311.61,221.74 315.84,229.22 C320.08,236.7 322.11,243.25 323.78,250.81 C325.44,258.38 325.82,268.08 325.81,274.61 C325.81,281.15 325.28,283.25 323.76,290.01 C322.23,296.78 317.56,309.61 316.67,315.21 C315.79,320.81 317.05,321.69 318.43,323.61 C319.81,325.54 321.87,326.19 324.94,326.74 C328.01,327.29 331.72,327.56 336.84,326.92 C341.97,326.29 351.47,324.63 355.69,322.91 C359.92,321.2 359.41,321.28 362.19,316.61 C364.96,311.95 370.69,299.93 372.35,294.91 C374.01,289.9 373.32,291.3 372.14,286.51 C370.96,281.73 367.11,274.03 365.28,266.21 C363.44,258.4 361.7,254.9 361.15,239.61 C360.61,224.33 362.91,186.9 362.01,174.51 C361.11,162.12 358.87,167.26 355.74,165.27 C352.62,163.29 346.73,163.76 343.25,162.61 C339.77,161.47 340.82,162.38 334.89,158.41 C328.95,154.45 317.43,146.63 307.62,138.81 C297.8,131 283.16,118.42 276.01,111.52 C268.87,104.61 267.93,102.98 264.74,97.38 C261.56,91.78 258.91,85.94 256.88,77.92 C254.85,69.89 252.9,58.78 252.55,49.22 C252.2,39.65 253.8,27.87 254.77,20.52 C255.74,13.17 257.17,8.73 258.37,5.12 C259.56,1.5 257.5,-7.73 261.94,-1.19 C266.39,5.34 277.21,30.69 285.04,44.35 C292.88,58 302.77,71.99 308.95,80.72 C315.14,89.44 318.55,92.77 322.14,96.73 C325.74,100.68 326.34,102.05 330.54,104.43 C334.74,106.81 340.27,106.91 347.34,111.01 C354.42,115.11 361.08,119.48 372.98,129.01 C384.87,138.55 407.29,157.95 418.73,168.21 C430.18,178.48 436.05,184.55 441.65,190.61 C447.25,196.68 449.83,202.28 452.35,204.61 C454.87,206.95 454.98,209.63 456.74,204.61 C458.51,199.6 462.32,185.36 462.96,174.51 C463.6,163.66 462.62,151.41 460.58,139.51 C458.55,127.62 456.07,116.77 450.77,103.12 C445.47,89.47 438.08,73.13 428.8,57.62 C419.52,42.1 405.99,23.55 395.08,10.02 C384.18,-3.52 375.27,-12.23 363.35,-23.58 C351.43,-34.93 340.5,-38.83 323.54,-58.08 C306.59,-77.33 275.74,-121.67 261.62,-139.08 C247.5,-156.5 248.47,-156.41 238.84,-162.58 C229.22,-168.75 216.21,-170.01 203.84,-176.11 C191.48,-182.2 178.88,-193.35 164.64,-199.13 C150.41,-204.92 134.19,-207.83 118.44,-210.81 C102.69,-213.8 86.71,-215.37 70.14,-217.03 C53.58,-218.69 51.48,-219.67 19.05,-220.77 C-13.39,-221.87 -95.52,-222.21 -124.45,-223.62 C-153.39,-225.04 -145.93,-226.66 -154.55,-229.25 C-163.18,-231.85 -169.26,-234.73 -176.2,-239.18 C-183.13,-243.64 -189.75,-251.53 -196.18,-255.98 C-202.61,-260.44 -208.16,-263.27 -214.75,-265.91 C-221.35,-268.56 -226.48,-270.02 -235.75,-271.86 C-245.03,-273.71 -262.18,-268.66 -270.42,-276.98 C-278.66,-285.3 -281.87,-313.46 -285.19,-321.78 C-288.51,-330.1 -286.23,-329.87 -290.35,-326.91 C-294.48,-323.96 -304.94,-308.83 -309.95,-304.05 C-314.97,-299.26 -313.22,-298.42 -320.45,-298.2 C-327.69,-297.99 -343.79,-302.16 -353.35,-302.75 C-362.92,-303.35 -366.54,-303.8 -377.85,-301.78 C-389.17,-299.76 -413.2,-292.18 -421.25,-290.61 C-429.3,-289.03 -423.36,-290.41 -426.15,-292.34 C-428.95,-294.27 -433.54,-297.39 -438.01,-302.18 C-442.48,-306.97 -449.41,-318.17 -452.98,-321.08 C-456.55,-324 -457.75,-322.13 -459.41,-319.68 C-461.07,-317.23 -462.35,-310.58 -462.95,-306.38 C-463.54,-302.18 -465.19,-305.68 -462.96,-294.48 ZM-202.21,95.42 C-202.27,90.87 -202.36,78.08 -202.12,74.42 C-201.88,70.75 -202.26,73.56 -200.75,73.4 C-199.24,73.24 -195.5,73.18 -193.05,73.45 C-190.6,73.72 -188.47,74.63 -186.05,75.03 C-183.64,75.42 -179.99,75.33 -178.55,75.82 C-177.11,76.3 -177.48,76.63 -177.4,77.92 C-177.32,79.2 -177,80.6 -178.08,83.52 C-179.16,86.43 -182.69,93.2 -183.87,95.42 C-185.06,97.63 -183.16,93.55 -185.18,96.82 C-187.2,100.08 -193.28,110.86 -195.99,115.02 C-198.7,119.17 -200.42,120.83 -201.45,121.76 C-202.48,122.69 -202.12,123.96 -202.17,120.62 C-202.21,117.27 -201.73,105.92 -201.73,101.72 C-201.74,97.52 -202.15,99.97 -202.21,95.42 Z" style="fill:#262627;" />
</svg>